<svg width="174" height="45" viewBox="0 0 174 45" fill="none" xmlns="http://www.w3.org/2000/svg">
<path d="M27.5036 37.8791V44.8422H0V0H8.89006V37.8791H27.5036Z" fill="#A3C35A"/>
<path d="M10.6958 6.96308V0H38.1994V44.8422H29.3094V6.96308H10.6958Z" fill="#A3C35A"/>
<path d="M10.6125 9.24707H25.5311V12.6172H14.3908V20.6665H25.1699V24.0366H14.3908V32.2252H25.8923V35.5954H10.6125V9.24707Z" fill="white"/>
<path d="M47.6223 25.9761H49.317V36.2536H54.6232V37.7854H47.6223V25.9761Z" fill="#A3C35A"/>
<path d="M62.8188 25.8096C64.6524 25.8096 66.1525 26.3945 67.3749 27.5364C68.5973 28.6784 69.1807 30.1267 69.1807 31.8814C69.1807 33.6361 68.5695 35.0565 67.3471 36.1985C66.1248 37.3404 64.5968 37.8975 62.7354 37.8975C60.9574 37.8975 59.485 37.3404 58.2904 36.1985C57.0958 35.0565 56.5124 33.6361 56.5124 31.9092C56.5124 30.1545 57.0958 28.6784 58.2904 27.5364C59.485 26.3666 60.9852 25.8096 62.8188 25.8096ZM62.8743 27.3972C61.513 27.3972 60.4296 27.8149 59.5406 28.6784C58.6793 29.5139 58.2348 30.6002 58.2348 31.9092C58.2348 33.1904 58.6793 34.2488 59.5406 35.0844C60.4018 35.92 61.513 36.3656 62.8188 36.3656C64.1245 36.3656 65.2358 35.9478 66.097 35.0844C66.986 34.221 67.4027 33.1626 67.4027 31.8535C67.4027 30.6002 66.9582 29.5418 66.097 28.7062C65.2358 27.8428 64.1523 27.3972 62.8743 27.3972Z" fill="#A3C35A"/>
<path d="M72.2089 25.9761H73.9036V37.6183C73.9036 38.7046 73.7924 39.5123 73.5702 40.0415C73.3479 40.5707 72.9868 40.9884 72.4867 41.2948C71.9866 41.6012 71.4032 41.7683 70.7087 41.7683C70.5976 41.7683 70.4309 41.7405 70.1531 41.7126L69.8475 40.1529H70.2642C70.7365 40.1529 71.1254 40.0972 71.3755 39.9858C71.6255 39.8744 71.82 39.6515 71.9866 39.373C72.1255 39.0666 72.2089 38.4539 72.2089 37.4791V25.9761Z" fill="#A3C35A"/>
<path d="M81.2378 25.8931H82.4324L87.7109 37.7582H85.9607L84.3771 34.2488H79.3487L77.8763 37.7582H76.1538L81.2378 25.8931ZM83.7104 32.7726L81.8212 28.4833L80.071 32.7726H83.7104Z" fill="#A3C35A"/>
<path d="M92.8504 32.8283L91.5725 32.0485C90.7668 31.5471 90.1834 31.0736 89.85 30.6001C89.5167 30.1267 89.35 29.5696 89.35 28.9569C89.35 28.0377 89.6834 27.2857 90.3223 26.7008C90.9613 26.1159 91.7947 25.8374 92.8227 25.8374C93.795 25.8374 94.7118 26.1159 95.5175 26.673V28.5948C94.6562 27.7871 93.7672 27.3693 92.7671 27.3693C92.2115 27.3693 91.767 27.5085 91.4058 27.7592C91.0446 28.0099 90.878 28.3441 90.878 28.734C90.878 29.0961 91.0169 29.4304 91.2669 29.7367C91.5169 30.0431 91.9337 30.3773 92.5171 30.7116L93.795 31.4636C95.2396 32.327 95.962 33.4132 95.962 34.7501C95.962 35.6971 95.6564 36.477 95.0174 37.0619C94.3784 37.6468 93.5728 37.9532 92.5448 37.9532C91.378 37.9532 90.3223 37.5911 89.3778 36.8669V34.7223C90.2945 35.8921 91.3502 36.4491 92.5448 36.4491C93.0727 36.4491 93.5172 36.3099 93.8506 36.0035C94.2117 35.6971 94.3784 35.335 94.3784 34.8894C94.4062 34.1653 93.8783 33.4689 92.8504 32.8283Z" fill="#A3C35A"/>
<path d="M104.019 25.9761H110.686V27.4801H105.685V31.073H110.519V32.5771H105.685V36.2536H110.825V37.7576H104.019V25.9761Z" fill="white"/>
<path d="M123.577 25.9761H125.16V37.7854H123.466V28.5942L119.854 33.162H119.548L115.881 28.5942V37.7854H114.187V25.9761H115.77L119.687 30.8224L123.577 25.9761Z" fill="white"/>
<path d="M135.023 25.8096C136.856 25.8096 138.356 26.3945 139.579 27.5364C140.801 28.6784 141.385 30.1267 141.385 31.8814C141.385 33.6361 140.773 35.0565 139.551 36.1985C138.329 37.3404 136.801 37.8975 134.939 37.8975C133.161 37.8975 131.689 37.3404 130.494 36.1985C129.3 35.0565 128.716 33.6361 128.716 31.9092C128.716 30.1545 129.3 28.6784 130.494 27.5364C131.689 26.3666 133.189 25.8096 135.023 25.8096ZM135.078 27.3972C133.717 27.3972 132.633 27.8149 131.744 28.6784C130.855 29.5418 130.439 30.6002 130.439 31.9092C130.439 33.1904 130.883 34.2488 131.744 35.0844C132.606 35.92 133.717 36.3656 135.023 36.3656C136.328 36.3656 137.44 35.9478 138.301 35.0844C139.162 34.221 139.607 33.1626 139.607 31.8535C139.607 30.6002 139.162 29.5418 138.301 28.7062C137.44 27.8428 136.356 27.3972 135.078 27.3972Z" fill="white"/>
<path d="M145.024 25.9761H151.303V27.4801H146.719V30.7667H151.303V32.2707H146.719V37.7854H145.024V25.9761Z" fill="white"/>
<path d="M154.664 25.9761H161.332V27.4801H156.331V31.073H161.165V32.5771H156.331V36.2536H161.471V37.7576H154.636V25.9761H154.664Z" fill="white"/>
<path d="M164.915 37.7854V25.9761H167.86C169.055 25.9761 169.999 26.2824 170.694 26.8673C171.389 27.4522 171.75 28.26 171.75 29.2626C171.75 29.959 171.583 30.5438 171.222 31.0452C170.861 31.5465 170.388 31.9086 169.749 32.1593C170.138 32.4099 170.5 32.7442 170.861 33.162C171.222 33.5797 171.722 34.3318 172.389 35.3901C172.805 36.0586 173.139 36.5599 173.389 36.8942L174 37.7297H172L171.5 36.9499C171.472 36.922 171.444 36.8663 171.389 36.8106L171.055 36.3371L170.527 35.4737L169.972 34.5546C169.611 34.0811 169.305 33.6912 169.027 33.3848C168.749 33.1063 168.471 32.8834 168.249 32.772C168.027 32.6328 167.61 32.5771 167.082 32.5771H166.638V37.7297H164.915V37.7854ZM167.11 27.3965H166.61V31.1287H167.249C168.11 31.1287 168.694 31.0452 168.999 30.9059C169.305 30.7667 169.555 30.5438 169.749 30.2375C169.944 29.9311 170.027 29.5969 170.027 29.2348C170.027 28.8727 169.916 28.5385 169.722 28.2321C169.527 27.9257 169.249 27.7308 168.888 27.5915C168.527 27.4522 167.916 27.3965 167.11 27.3965Z" fill="white"/>
<path d="M79.5432 44.0252V44.638C79.1265 44.8608 78.6542 44.9722 78.0986 44.9722C77.6541 44.9722 77.2929 44.8886 76.9873 44.6937C76.6817 44.5265 76.4317 44.2759 76.265 43.9695C76.0983 43.6631 75.9872 43.3289 75.9872 42.9668C75.9872 42.3819 76.1817 41.9084 76.5984 41.5185C77.0151 41.1286 77.5152 40.9336 78.1264 40.9336C78.5431 40.9336 79.0154 41.045 79.5154 41.2678V41.8806C79.0431 41.602 78.5986 41.4906 78.1541 41.4906C77.7096 41.4906 77.3207 41.6299 77.0151 41.9084C76.7095 42.1869 76.5706 42.549 76.5706 42.9947C76.5706 43.4403 76.7095 43.7745 77.0151 44.0809C77.3207 44.3594 77.6819 44.4987 78.1541 44.4987C78.6264 44.4708 79.0987 44.3037 79.5432 44.0252Z" fill="white"/>
<path d="M82.1824 40.9058C82.7936 40.9058 83.2937 41.1007 83.7104 41.4907C84.1271 41.8806 84.3216 42.3541 84.3216 42.939C84.3216 43.5239 84.1271 43.9974 83.7104 44.3873C83.2937 44.7772 82.7936 44.9722 82.1546 44.9722C81.5712 44.9722 81.0712 44.7772 80.6545 44.3873C80.2655 43.9974 80.071 43.5239 80.071 42.939C80.071 42.3541 80.2655 41.8527 80.6822 41.4628C81.0712 41.1007 81.5712 40.9058 82.1824 40.9058ZM82.2102 41.4628C81.7657 41.4628 81.3768 41.6021 81.099 41.8806C80.8211 42.1591 80.6545 42.5212 80.6545 42.9668C80.6545 43.3846 80.7934 43.7467 81.099 44.0252C81.4046 44.3037 81.7657 44.443 82.1824 44.443C82.6269 44.443 82.9881 44.3037 83.2937 43.9974C83.5993 43.7188 83.7382 43.3568 83.7382 42.9111C83.7382 42.4933 83.5993 42.1313 83.2937 41.8527C83.0159 41.6021 82.6269 41.4628 82.2102 41.4628Z" fill="white"/>
<path d="M88.1554 40.9614H88.6833V44.9165H88.1276V41.8249L86.9052 43.3567H86.7941L85.5717 41.8249V44.9165H85.0161V40.9614H85.544L86.8497 42.5769L88.1554 40.9614Z" fill="white"/>
<path d="M89.5446 40.9613H91.7949V41.4626H90.128V42.6603H91.7393V43.1616H90.128V44.3871H91.8504V44.8885H89.5446V40.9613ZM91.1837 39.8193L90.5447 40.6828H90.2391L90.628 39.8193H91.1837Z" fill="white"/>
<path d="M92.4615 44.9443V40.9893H93.4617C93.8506 40.9893 94.184 41.1007 94.4063 41.2956C94.6285 41.4906 94.7674 41.7691 94.7674 42.1034C94.7674 42.3262 94.7119 42.5211 94.6007 42.7161C94.4896 42.8832 94.3229 43.0225 94.1007 43.106C94.2396 43.1896 94.3507 43.301 94.4618 43.4403C94.5729 43.5795 94.7396 43.8302 94.9619 44.1923C95.1008 44.4151 95.2119 44.5822 95.2953 44.6936L95.5175 44.9721H94.8508L94.6841 44.7215C94.6841 44.7215 94.6563 44.6936 94.6563 44.6658L94.5452 44.4986L94.3785 44.2201L94.184 43.9138C94.0729 43.7466 93.9617 43.6352 93.8506 43.5238C93.7395 43.4403 93.6562 43.3567 93.6006 43.3289C93.545 43.301 93.3783 43.2731 93.2117 43.2731H93.0727V45H92.4615V44.9443ZM93.2117 41.4627H93.045V42.7161H93.2672C93.545 42.7161 93.7395 42.6882 93.8506 42.6325C93.9617 42.5768 94.0451 42.5211 94.1007 42.4097C94.1562 42.2983 94.184 42.1869 94.184 42.0755C94.184 41.9641 94.1562 41.8248 94.0729 41.7413C93.9895 41.6577 93.9062 41.5742 93.7951 41.5185C93.6839 41.4627 93.4895 41.4627 93.2117 41.4627Z" fill="white"/>
<path d="M99.3514 44.0252V44.638C98.9347 44.8608 98.4624 44.9722 97.9067 44.9722C97.4622 44.9722 97.1011 44.8886 96.7955 44.6937C96.4899 44.5265 96.2399 44.2759 96.0732 43.9695C95.9065 43.6631 95.7953 43.3289 95.7953 42.9668C95.7953 42.3819 95.9898 41.9084 96.4065 41.5185C96.8233 41.1286 97.3233 40.9336 97.9345 40.9336C98.3512 40.9336 98.8235 41.045 99.3236 41.2678V41.8806C98.8513 41.602 98.4068 41.4906 97.9623 41.4906C97.5178 41.4906 97.1289 41.6299 96.8233 41.9084C96.5177 42.1869 96.3788 42.549 96.3788 42.9947C96.3788 43.4403 96.5177 43.7745 96.8233 44.0809C97.1289 44.3594 97.49 44.4987 97.9623 44.4987C98.4346 44.4708 98.9069 44.3037 99.3514 44.0252Z" fill="white"/>
<path d="M100.046 40.9614H100.602V44.9165H100.046V40.9614Z" fill="white"/>
<path d="M103.435 40.9058C104.046 40.9058 104.546 41.1007 104.963 41.4907C105.38 41.8806 105.574 42.3541 105.574 42.939C105.574 43.5239 105.38 43.9974 104.963 44.3873C104.546 44.7772 104.046 44.9722 103.407 44.9722C102.824 44.9722 102.324 44.7772 101.907 44.3873C101.518 43.9974 101.324 43.5239 101.324 42.939C101.324 42.3541 101.518 41.8527 101.935 41.4628C102.324 41.1007 102.824 40.9058 103.435 40.9058ZM103.463 41.4628C103.019 41.4628 102.63 41.6021 102.352 41.8806C102.074 42.1591 101.907 42.5212 101.907 42.9668C101.907 43.3846 102.046 43.7467 102.352 44.0252C102.657 44.3037 103.019 44.443 103.435 44.443C103.88 44.443 104.241 44.3037 104.546 43.9974C104.852 43.7188 104.991 43.3568 104.991 42.9111C104.991 42.4933 104.852 42.1313 104.546 41.8527C104.269 41.6021 103.908 41.4628 103.463 41.4628Z" fill="white"/>
<path d="M107.88 44.9165V40.9614H109.214C109.742 40.9614 110.186 41.045 110.492 41.2121C110.797 41.3792 111.047 41.602 111.242 41.9363C111.436 42.2426 111.52 42.6047 111.52 42.9668C111.52 43.2453 111.464 43.496 111.353 43.7188C111.242 43.9695 111.103 44.1644 110.908 44.3594C110.714 44.5544 110.492 44.6936 110.242 44.7772C110.103 44.8329 109.964 44.8886 109.825 44.8886C109.714 44.9165 109.464 44.9165 109.103 44.9165H107.88ZM109.158 41.4628H108.464V44.4151H109.186C109.464 44.4151 109.686 44.3873 109.853 44.3594C110.019 44.3316 110.131 44.2758 110.242 44.2201C110.353 44.1644 110.436 44.0809 110.519 43.9973C110.797 43.7188 110.936 43.3567 110.936 42.9111C110.936 42.4933 110.797 42.1312 110.519 41.8805C110.408 41.7691 110.297 41.6856 110.158 41.6299C110.019 41.5742 109.881 41.5185 109.769 41.4906C109.63 41.4906 109.436 41.4628 109.158 41.4628Z" fill="white"/>
<path d="M112.242 40.9614H114.492V41.4628H112.825V42.6604H114.437V43.1618H112.825V44.3873H114.548V44.8886H112.242V40.9614Z" fill="white"/>
<path d="M116.743 40.9614H118.854V41.4628H117.298V42.5769H118.854V43.0782H117.298V44.9165H116.743V40.9614Z" fill="white"/>
<path d="M119.465 40.9614H121.715V41.4628H120.049V42.6604H121.66V43.1618H120.049V44.3873H121.771V44.8886H119.465V40.9614Z" fill="white"/>
<path d="M122.382 44.9443V40.9893H123.382C123.771 40.9893 124.105 41.1007 124.327 41.2956C124.549 41.4906 124.688 41.7691 124.688 42.1034C124.688 42.3262 124.632 42.5211 124.521 42.7161C124.41 42.8832 124.243 43.0225 124.021 43.106C124.16 43.1896 124.271 43.301 124.382 43.4403C124.494 43.5795 124.66 43.8302 124.882 44.1923C125.021 44.4151 125.132 44.5822 125.216 44.6936L125.438 44.9721H124.771L124.605 44.7215C124.605 44.7215 124.577 44.6936 124.577 44.6658L124.466 44.4986L124.299 44.2201L124.105 43.9138C123.993 43.7466 123.882 43.6352 123.771 43.5238C123.688 43.4403 123.577 43.3567 123.521 43.3289C123.438 43.2731 123.299 43.2731 123.132 43.2731H122.993V45H122.382V44.9443ZM123.104 41.4627H122.938V42.7161H123.16C123.438 42.7161 123.632 42.6882 123.743 42.6325C123.855 42.5768 123.938 42.5211 123.993 42.4097C124.049 42.2983 124.077 42.1869 124.077 42.0755C124.077 41.9641 124.049 41.8248 123.966 41.7413C123.91 41.6299 123.799 41.5742 123.688 41.5185C123.605 41.4627 123.382 41.4627 123.104 41.4627Z" fill="white"/>
<path d="M125.883 44.9443V40.9893H126.883C127.272 40.9893 127.605 41.1007 127.827 41.2956C128.05 41.4906 128.188 41.7691 128.188 42.1034C128.188 42.3262 128.133 42.5211 128.022 42.7161C127.911 42.8832 127.744 43.0225 127.522 43.106C127.661 43.1896 127.772 43.301 127.883 43.4403C127.994 43.5795 128.161 43.8302 128.383 44.1923C128.522 44.4151 128.633 44.5822 128.716 44.6936L128.939 44.9721H128.272L128.105 44.7215C128.105 44.7215 128.077 44.6936 128.077 44.6658L127.966 44.4986L127.8 44.2201L127.605 43.9138C127.494 43.7466 127.383 43.6352 127.272 43.5238C127.188 43.4403 127.077 43.3567 127.022 43.3289C126.938 43.2731 126.799 43.2731 126.633 43.2731H126.494V45H125.883V44.9443ZM126.605 41.4627H126.438V42.7161H126.661C126.938 42.7161 127.133 42.6882 127.244 42.6325C127.355 42.5768 127.438 42.5211 127.494 42.4097C127.55 42.2983 127.577 42.1869 127.577 42.0755C127.577 41.9641 127.55 41.8248 127.466 41.7413C127.411 41.6299 127.299 41.5742 127.188 41.5185C127.105 41.4627 126.883 41.4627 126.605 41.4627Z" fill="white"/>
<path d="M130.967 40.9058C131.578 40.9058 132.078 41.1007 132.495 41.4907C132.911 41.8806 133.106 42.3541 133.106 42.939C133.106 43.5239 132.911 43.9974 132.495 44.3873C132.078 44.7772 131.578 44.9722 130.939 44.9722C130.355 44.9722 129.855 44.7772 129.439 44.3873C129.05 43.9974 128.855 43.5239 128.855 42.939C128.855 42.3541 129.05 41.8527 129.466 41.4628C129.855 41.1007 130.355 40.9058 130.967 40.9058ZM130.994 41.4628C130.55 41.4628 130.161 41.6021 129.883 41.8806C129.605 42.1591 129.439 42.5212 129.439 42.9668C129.439 43.3846 129.578 43.7467 129.883 44.0252C130.189 44.3037 130.55 44.443 130.994 44.443C131.439 44.443 131.8 44.3037 132.106 43.9974C132.411 43.691 132.55 43.3568 132.55 42.9111C132.55 42.4933 132.411 42.1313 132.106 41.8527C131.8 41.5742 131.411 41.4628 130.994 41.4628Z" fill="white"/>
<path d="M134.773 43.2732L134.356 43.0225C134.078 42.8554 133.884 42.6883 133.773 42.5212C133.661 42.3541 133.606 42.187 133.606 41.9642C133.606 41.6578 133.717 41.4071 133.939 41.2121C134.162 41.0172 134.439 40.9058 134.773 40.9058C135.106 40.9058 135.412 40.9893 135.689 41.1843V41.8249C135.412 41.5464 135.106 41.4071 134.773 41.4071C134.578 41.4071 134.439 41.4628 134.328 41.5464C134.217 41.6299 134.162 41.7413 134.162 41.8806C134.162 41.992 134.217 42.1034 134.3 42.2148C134.384 42.3262 134.523 42.4376 134.717 42.549L135.162 42.7997C135.634 43.0782 135.884 43.4682 135.884 43.9138C135.884 44.2202 135.773 44.4987 135.578 44.6937C135.356 44.8886 135.078 45.0001 134.745 45.0001C134.356 45.0001 133.995 44.8886 133.689 44.638V43.9138C133.995 44.3037 134.356 44.4987 134.745 44.4987C134.912 44.4987 135.078 44.443 135.189 44.3594C135.301 44.248 135.356 44.1366 135.356 43.9974C135.301 43.7188 135.106 43.496 134.773 43.2732Z" fill="white"/>
<path d="M138.051 40.9614H140.301V41.4628H138.634V42.6604H140.246V43.1618H138.634V44.3873H140.357V44.8886H138.051V40.9614Z" fill="white"/>
<path d="M142.579 40.9614H144.691V41.4628H143.135V42.5769H144.691V43.0782H143.135V44.9165H142.579V40.9614Z" fill="white"/>
<path d="M145.274 40.9614H147.524V41.4628H145.857V42.6604H147.469V43.1618H145.857V44.3873H147.58V44.8886H145.274V40.9614Z" fill="white"/>
<path d="M148.191 44.9443V40.9893H149.191C149.58 40.9893 149.914 41.1007 150.136 41.2956C150.358 41.4906 150.497 41.7691 150.497 42.1034C150.497 42.3262 150.441 42.5211 150.33 42.7161C150.219 42.8832 150.052 43.0225 149.83 43.106C149.969 43.1896 150.08 43.301 150.191 43.4403C150.302 43.5795 150.469 43.8302 150.691 44.1923C150.83 44.4151 150.941 44.5822 151.025 44.6936L151.247 44.9721H150.58L150.414 44.7215C150.414 44.7215 150.386 44.6936 150.386 44.6658L150.275 44.4986L150.108 44.2201L149.914 43.9138C149.802 43.7466 149.691 43.6352 149.58 43.5238C149.469 43.4124 149.386 43.3567 149.33 43.3289C149.247 43.2731 149.108 43.2731 148.941 43.2731H148.802V45H148.191V44.9443ZM148.941 41.4627H148.775V42.7161H148.997C149.275 42.7161 149.469 42.6882 149.58 42.6325C149.691 42.5768 149.775 42.5211 149.83 42.4097C149.886 42.2983 149.914 42.1869 149.914 42.0755C149.914 41.9641 149.886 41.8248 149.802 41.7413C149.719 41.6577 149.636 41.5742 149.525 41.5185C149.413 41.4627 149.219 41.4627 148.941 41.4627Z" fill="white"/>
<path d="M151.692 44.9443V40.9893H152.692C153.081 40.9893 153.414 41.1007 153.636 41.2956C153.859 41.4906 153.997 41.7691 153.997 42.1034C153.997 42.3262 153.942 42.5211 153.831 42.7161C153.72 42.8832 153.553 43.0225 153.331 43.106C153.47 43.1896 153.581 43.301 153.692 43.4403C153.803 43.5795 153.97 43.8302 154.192 44.1923C154.331 44.4151 154.442 44.5822 154.525 44.6936L154.748 44.9721H154.081L153.914 44.7215C153.914 44.7215 153.886 44.6936 153.886 44.6658L153.775 44.4986L153.609 44.2201L153.414 43.9138C153.303 43.7466 153.192 43.6352 153.081 43.5238C152.97 43.4124 152.886 43.3567 152.831 43.3289C152.747 43.2731 152.608 43.2731 152.442 43.2731H152.303V45H151.692V44.9443ZM152.442 41.4627H152.275V42.7161H152.497C152.775 42.7161 152.97 42.6882 153.081 42.6325C153.192 42.5768 153.275 42.5211 153.331 42.4097C153.386 42.2983 153.414 42.1869 153.414 42.0755C153.414 41.9641 153.386 41.8248 153.303 41.7413C153.22 41.6577 153.136 41.5742 153.025 41.5185C152.914 41.4627 152.72 41.4627 152.442 41.4627Z" fill="white"/>
<path d="M156.442 40.9614H156.831L158.609 44.9443H158.026L157.498 43.7745H155.803L155.303 44.9443H154.72L156.442 40.9614ZM157.276 43.2453L156.637 41.797L156.053 43.2453H157.276Z" fill="white"/>
<path d="M160.971 42.9947H162.304V44.6658C161.804 44.8886 161.332 44.9722 160.859 44.9722C160.193 44.9722 159.693 44.7772 159.276 44.3873C158.887 43.9974 158.692 43.5239 158.692 42.9668C158.692 42.3819 158.887 41.8806 159.304 41.4907C159.72 41.1007 160.22 40.9058 160.832 40.9058C161.054 40.9058 161.276 40.9336 161.471 40.9893C161.665 41.045 161.915 41.1286 162.221 41.2678V41.8527C161.748 41.5742 161.276 41.435 160.804 41.435C160.359 41.435 159.998 41.5742 159.72 41.8806C159.443 42.187 159.276 42.549 159.276 42.9668C159.276 43.4125 159.415 43.7745 159.72 44.0809C160.026 44.3594 160.387 44.4987 160.859 44.4987C161.082 44.4987 161.359 44.443 161.665 44.3316L161.721 44.3037V43.4682H160.971V42.9947Z" fill="white"/>
<path d="M163.11 40.9614H165.36V41.4628H163.693V42.6604H165.304V43.1618H163.693V44.3873H165.416V44.8886H163.11V40.9614Z" fill="white"/>
<path d="M169.166 40.9614H169.694V44.9165H169.194L166.555 41.8527V44.9165H166.027V40.9614H166.499L169.166 44.053V40.9614Z" fill="white"/>
<path d="M171.528 43.2732L171.111 43.0225C170.833 42.8554 170.639 42.6883 170.527 42.5212C170.416 42.3541 170.361 42.187 170.361 41.9642C170.361 41.6578 170.472 41.4071 170.694 41.2121C170.916 41.0172 171.194 40.9058 171.528 40.9058C171.861 40.9058 172.167 40.9893 172.444 41.1843V41.8249C172.167 41.5464 171.861 41.4071 171.528 41.4071C171.333 41.4071 171.194 41.4628 171.083 41.5464C170.972 41.6299 170.916 41.7413 170.916 41.8806C170.916 41.992 170.972 42.1034 171.055 42.2148C171.139 42.3262 171.278 42.4376 171.472 42.549L171.916 42.7997C172.389 43.0782 172.639 43.4682 172.639 43.9138C172.639 44.2202 172.528 44.4987 172.333 44.6937C172.111 44.8886 171.833 45.0001 171.5 45.0001C171.111 45.0001 170.75 44.8886 170.444 44.638V43.9138C170.75 44.3037 171.111 44.4987 171.5 44.4987C171.666 44.4987 171.833 44.443 171.944 44.3594C172.055 44.248 172.111 44.1366 172.111 43.9974C172.055 43.7188 171.861 43.496 171.528 43.2732Z" fill="white"/>
</svg>
