<svg width="234" height="60" viewBox="0 0 234 60" fill="none" xmlns="http://www.w3.org/2000/svg">
<path d="M36.8556 50.5055V59.7896H0V0H11.9129V50.5055H36.8556Z" fill="#A3C35A"/>
<path d="M14.3327 9.2841V0H51.1883V59.7896H39.2754V9.2841H14.3327Z" fill="#A3C35A"/>
<path d="M14.221 12.3293H34.2124V16.8228H19.284V27.5552H33.7284V32.0487H19.284V42.9669H34.6963V47.4604H14.221V12.3293Z" fill="#495928"/>
<path d="M63.8151 34.6359H66.086V48.3392H73.1965V50.3817H63.8151V34.6359Z" fill="#A3C35A"/>
<path d="M84.1788 34.4131C86.6358 34.4131 88.6461 35.1929 90.2841 36.7155C91.9221 38.2381 92.7039 40.1692 92.7039 42.5088C92.7039 44.8484 91.8849 46.7423 90.2469 48.2649C88.6089 49.7875 86.5613 50.5303 84.0671 50.5303C81.6845 50.5303 79.7114 49.7875 78.1106 48.2649C76.5098 46.7423 75.728 44.8484 75.728 42.5459C75.728 40.2063 76.5098 38.2381 78.1106 36.7155C79.7114 35.1558 81.7217 34.4131 84.1788 34.4131ZM84.2532 36.5298C82.429 36.5298 80.9772 37.0869 79.7859 38.2381C78.6318 39.3522 78.0362 40.8005 78.0362 42.5459C78.0362 44.2542 78.6318 45.6654 79.7859 46.7795C80.9399 47.8936 82.429 48.4878 84.1788 48.4878C85.9285 48.4878 87.4176 47.9307 88.5716 46.7795C89.7629 45.6283 90.3213 44.2171 90.3213 42.4717C90.3213 40.8005 89.7257 39.3893 88.5716 38.2752C87.4176 37.124 85.9657 36.5298 84.2532 36.5298Z" fill="#A3C35A"/>
<path d="M96.7618 34.6359H99.0327V50.1589C99.0327 51.6072 98.8838 52.6842 98.5859 53.3898C98.2881 54.0954 97.8042 54.6524 97.1341 55.0609C96.464 55.4694 95.6822 55.6922 94.7515 55.6922C94.6026 55.6922 94.3792 55.6551 94.0069 55.618L93.5974 53.5383H94.1558C94.7887 53.5383 95.3099 53.4641 95.6449 53.3155C95.98 53.167 96.2406 52.8699 96.464 52.4985C96.6501 52.09 96.7618 51.273 96.7618 49.9732V34.6359Z" fill="#A3C35A"/>
<path d="M108.861 34.5245H110.462L117.535 50.3446H115.19L113.068 45.6654H106.329L104.356 50.3446H102.048L108.861 34.5245ZM112.174 43.6972L109.643 37.9782L107.297 43.6972H112.174Z" fill="#A3C35A"/>
<path d="M124.422 43.7714L122.709 42.7316C121.63 42.0631 120.848 41.4318 120.401 40.8005C119.955 40.1692 119.731 39.4264 119.731 38.6094C119.731 37.3839 120.178 36.3813 121.034 35.6014C121.89 34.8215 123.007 34.4502 124.385 34.4502C125.688 34.4502 126.916 34.8215 127.996 35.5643V38.1267C126.842 37.0497 125.65 36.4927 124.31 36.4927C123.566 36.4927 122.97 36.6783 122.486 37.0126C122.002 37.3468 121.779 37.7924 121.779 38.3124C121.779 38.7951 121.965 39.2408 122.3 39.6493C122.635 40.0578 123.193 40.5034 123.975 40.949L125.688 41.9517C127.624 43.103 128.591 44.5513 128.591 46.3338C128.591 47.5965 128.182 48.6363 127.326 49.4162C126.47 50.196 125.39 50.6045 124.012 50.6045C122.449 50.6045 121.034 50.1217 119.768 49.1562V46.2967C120.997 47.8564 122.412 48.5991 124.012 48.5991C124.72 48.5991 125.315 48.4135 125.762 48.005C126.246 47.5965 126.47 47.1137 126.47 46.5195C126.507 45.554 125.799 44.6255 124.422 43.7714Z" fill="#A3C35A"/>
<path d="M139.388 34.6359H148.322V36.6413H141.621V41.4319H148.099V43.4372H141.621V48.3392H148.508V50.3446H139.388V34.6359Z" fill="#495928"/>
<path d="M165.596 34.6359H167.718V50.3817H165.447V38.1267L160.607 44.2171H160.198L155.284 38.1267V50.3817H153.013V34.6359H155.135L160.384 41.0977L165.596 34.6359Z" fill="#495928"/>
<path d="M180.934 34.4131C183.391 34.4131 185.401 35.1929 187.039 36.7155C188.677 38.2381 189.459 40.1692 189.459 42.5088C189.459 44.8484 188.64 46.7424 187.002 48.265C185.364 49.7876 183.316 50.5303 180.822 50.5303C178.439 50.5303 176.466 49.7876 174.866 48.265C173.265 46.7424 172.483 44.8484 172.483 42.546C172.483 40.2064 173.265 38.2381 174.866 36.7155C176.466 35.1558 178.477 34.4131 180.934 34.4131ZM181.008 36.5299C179.184 36.5299 177.732 37.0869 176.541 38.2381C175.35 39.3894 174.791 40.8006 174.791 42.546C174.791 44.2542 175.387 45.6654 176.541 46.7795C177.695 47.8936 179.184 48.4878 180.934 48.4878C182.683 48.4878 184.173 47.9307 185.327 46.7795C186.481 45.6283 187.076 44.2171 187.076 42.4717C187.076 40.8005 186.481 39.3894 185.327 38.2753C184.173 37.124 182.721 36.5299 181.008 36.5299Z" fill="#495928"/>
<path d="M194.336 34.6359H202.749V36.6413H196.607V41.0234H202.749V43.0287H196.607V50.3817H194.336V34.6359Z" fill="#495928"/>
<path d="M207.254 34.6359H216.189V36.6413H209.488V41.4319H215.965V43.4372H209.488V48.3392H216.375V50.3446H207.217V34.6359H207.254Z" fill="#495928"/>
<path d="M220.991 50.3817V34.6359H224.937C226.538 34.6359 227.804 35.0444 228.734 35.8243C229.665 36.6042 230.149 37.6811 230.149 39.018C230.149 39.9464 229.926 40.7263 229.442 41.3947C228.958 42.0632 228.325 42.546 227.469 42.8802C227.99 43.2144 228.474 43.6601 228.958 44.2171C229.442 44.7742 230.112 45.7768 231.005 47.188C231.564 48.0793 232.01 48.7477 232.345 49.1934L233.164 50.3075H230.484L229.814 49.2676C229.777 49.2305 229.739 49.1562 229.665 49.082L229.218 48.4507L228.511 47.2994L227.766 46.0739C227.282 45.4426 226.873 44.9227 226.501 44.5142C226.128 44.1428 225.756 43.8457 225.458 43.6972C225.16 43.5115 224.602 43.4372 223.895 43.4372H223.299V50.3075H220.991V50.3817ZM223.932 36.5299H223.262V41.5062H224.118C225.272 41.5062 226.054 41.3947 226.463 41.2091C226.873 41.0234 227.208 40.7263 227.469 40.3178C227.729 39.9093 227.841 39.4637 227.841 38.9809C227.841 38.4981 227.692 38.0525 227.431 37.644C227.171 37.2355 226.798 36.9755 226.315 36.7898C225.831 36.6042 225.012 36.5299 223.932 36.5299Z" fill="#495928"/>
<path d="M106.59 58.7002V59.5172C106.031 59.8143 105.399 59.9628 104.654 59.9628C104.058 59.9628 103.574 59.8514 103.165 59.5915C102.755 59.3686 102.42 59.0344 102.197 58.6259C101.974 58.2174 101.825 57.7718 101.825 57.289C101.825 56.5091 102.085 55.8778 102.644 55.3579C103.202 54.838 103.872 54.578 104.691 54.578C105.25 54.578 105.883 54.7266 106.553 55.0237V55.8407C105.92 55.4693 105.324 55.3208 104.728 55.3208C104.133 55.3208 103.612 55.5064 103.202 55.8778C102.793 56.2492 102.606 56.7319 102.606 57.3261C102.606 57.9203 102.793 58.3659 103.202 58.7744C103.612 59.1458 104.096 59.3315 104.728 59.3315C105.361 59.2944 105.994 59.0715 106.59 58.7002Z" fill="#606060"/>
<path d="M110.127 54.5409C110.946 54.5409 111.616 54.8009 112.174 55.3208C112.732 55.8407 112.993 56.472 112.993 57.2519C112.993 58.0317 112.732 58.663 112.174 59.1829C111.616 59.7028 110.946 59.9628 110.089 59.9628C109.308 59.9628 108.637 59.7028 108.079 59.1829C107.558 58.663 107.297 58.0317 107.297 57.2519C107.297 56.472 107.558 55.8035 108.116 55.2836C108.637 54.8008 109.308 54.5409 110.127 54.5409ZM110.164 55.2836C109.568 55.2836 109.047 55.4693 108.675 55.8407C108.302 56.212 108.079 56.6948 108.079 57.289C108.079 57.846 108.265 58.3288 108.675 58.7002C109.084 59.0715 109.568 59.2572 110.127 59.2572C110.722 59.2572 111.206 59.0715 111.616 58.663C112.025 58.2917 112.211 57.8089 112.211 57.2147C112.211 56.6577 112.025 56.1749 111.616 55.8035C111.243 55.4693 110.722 55.2836 110.164 55.2836Z" fill="#606060"/>
<path d="M118.131 54.6152H118.838V59.8885H118.093V55.7664L116.455 57.8089H116.306L114.668 55.7664V59.8885H113.924V54.6152H114.631L116.381 56.7691L118.131 54.6152Z" fill="#606060"/>
<path d="M119.992 54.6152H123.007V55.2836H120.774V56.8805H122.933V57.549H120.774V59.183H123.082V59.8514H119.992V54.6152ZM122.188 53.0926L121.332 54.2438H120.923L121.444 53.0926H122.188Z" fill="#606060"/>
<path d="M123.901 59.9257V54.6523H125.241C125.762 54.6523 126.209 54.8009 126.507 55.0608C126.805 55.3208 126.991 55.6922 126.991 56.1378C126.991 56.4349 126.916 56.6948 126.767 56.9548C126.618 57.1776 126.395 57.3633 126.097 57.4747C126.283 57.5861 126.432 57.7347 126.581 57.9203C126.73 58.106 126.954 58.4403 127.251 58.923C127.437 59.2201 127.586 59.4429 127.698 59.5915L127.996 59.9629H127.102L126.879 59.6286C126.879 59.6286 126.842 59.5915 126.842 59.5543L126.693 59.3315L126.47 58.9602L126.209 58.5517C126.06 58.3289 125.911 58.1803 125.762 58.0318C125.613 57.9203 125.502 57.8089 125.427 57.7718C125.353 57.7347 125.129 57.6975 124.906 57.6975H124.72V60H123.901V59.9257ZM124.906 55.2837H124.683V56.9548H124.98C125.353 56.9548 125.613 56.9177 125.762 56.8434C125.911 56.7691 126.023 56.6948 126.097 56.5463C126.172 56.3977 126.209 56.2492 126.209 56.1007C126.209 55.9521 126.172 55.7664 126.06 55.655C125.948 55.5436 125.837 55.4322 125.688 55.3579C125.539 55.2837 125.278 55.2837 124.906 55.2837Z" fill="#606060"/>
<path d="M133.133 58.7002V59.5172C132.575 59.8143 131.942 59.9628 131.198 59.9628C130.602 59.9628 130.118 59.8514 129.708 59.5915C129.299 59.3686 128.964 59.0344 128.741 58.6259C128.517 58.2174 128.368 57.7718 128.368 57.289C128.368 56.5091 128.629 55.8778 129.187 55.3579C129.746 54.838 130.416 54.578 131.235 54.578C131.793 54.578 132.426 54.7266 133.096 55.0237V55.8407C132.463 55.4693 131.868 55.3208 131.272 55.3208C130.676 55.3208 130.155 55.5064 129.746 55.8778C129.336 56.2492 129.15 56.7319 129.15 57.3261C129.15 57.9203 129.336 58.3659 129.746 58.7744C130.155 59.1458 130.639 59.3315 131.272 59.3315C131.905 59.2944 132.538 59.0715 133.133 58.7002Z" fill="#606060"/>
<path d="M134.064 54.6152H134.809V59.8885H134.064V54.6152Z" fill="#606060"/>
<path d="M138.606 54.5409C139.425 54.5409 140.095 54.8009 140.653 55.3208C141.212 55.8407 141.472 56.472 141.472 57.2519C141.472 58.0317 141.212 58.663 140.653 59.1829C140.095 59.7028 139.425 59.9628 138.569 59.9628C137.787 59.9628 137.117 59.7028 136.558 59.1829C136.037 58.663 135.777 58.0317 135.777 57.2519C135.777 56.472 136.037 55.8035 136.596 55.2836C137.117 54.8008 137.787 54.5409 138.606 54.5409ZM138.643 55.2836C138.047 55.2836 137.526 55.4693 137.154 55.8407C136.782 56.212 136.558 56.6948 136.558 57.289C136.558 57.846 136.744 58.3288 137.154 58.7002C137.563 59.0715 138.047 59.2572 138.606 59.2572C139.202 59.2572 139.685 59.0715 140.095 58.663C140.504 58.2917 140.691 57.8089 140.691 57.2147C140.691 56.6577 140.504 56.1749 140.095 55.8035C139.723 55.4693 139.239 55.2836 138.643 55.2836Z" fill="#606060"/>
<path d="M144.562 59.8885V54.6152H146.349C147.057 54.6152 147.652 54.7266 148.062 54.9494C148.471 55.1722 148.806 55.4693 149.067 55.9149C149.327 56.3235 149.439 56.8062 149.439 57.289C149.439 57.6604 149.365 57.9946 149.216 58.2917C149.067 58.6259 148.881 58.8859 148.62 59.1458C148.36 59.4058 148.062 59.5915 147.727 59.7029C147.54 59.7771 147.354 59.8514 147.168 59.8514C147.019 59.8886 146.684 59.8885 146.2 59.8885H144.562ZM146.275 55.2836H145.344V59.2201H146.312C146.684 59.2201 146.982 59.183 147.205 59.1458C147.429 59.1087 147.578 59.0344 147.727 58.9601C147.876 58.8859 147.987 58.7745 148.099 58.663C148.471 58.2917 148.657 57.8089 148.657 57.2147C148.657 56.6577 148.471 56.1749 148.099 55.8407C147.95 55.6921 147.801 55.5807 147.615 55.5064C147.429 55.4322 147.243 55.3579 147.094 55.3208C146.908 55.3208 146.647 55.2836 146.275 55.2836Z" fill="#606060"/>
<path d="M150.407 54.6152H153.422V55.2836H151.189V56.8805H153.348V57.5489H151.189V59.1829H153.497V59.8514H150.407V54.6152Z" fill="#606060"/>
<path d="M156.438 54.6152H159.267V55.2836H157.182V56.7691H159.267V57.4375H157.182V59.8885H156.438V54.6152Z" fill="#606060"/>
<path d="M160.086 54.6152H163.102V55.2836H160.868V56.8805H163.027V57.5489H160.868V59.1829H163.176V59.8514H160.086V54.6152Z" fill="#606060"/>
<path d="M163.995 59.9257V54.6523H165.335C165.857 54.6523 166.303 54.8009 166.601 55.0608C166.899 55.3208 167.085 55.6922 167.085 56.1378C167.085 56.4349 167.011 56.6948 166.862 56.9548C166.713 57.1776 166.489 57.3633 166.192 57.4747C166.378 57.5861 166.527 57.7347 166.676 57.9203C166.825 58.106 167.048 58.4403 167.346 58.923C167.532 59.2201 167.681 59.4429 167.792 59.5915L168.09 59.9629H167.197L166.973 59.6286C166.973 59.6286 166.936 59.5915 166.936 59.5543L166.787 59.3315L166.564 58.9602L166.303 58.5517C166.154 58.3289 166.006 58.1803 165.857 58.0318C165.745 57.9203 165.596 57.8089 165.522 57.7718C165.41 57.6975 165.224 57.6975 165 57.6975H164.814V60H163.995V59.9257ZM164.963 55.2837H164.74V56.9548H165.038C165.41 56.9548 165.67 56.9177 165.819 56.8434C165.968 56.7691 166.08 56.6948 166.154 56.5463C166.229 56.3977 166.266 56.2492 166.266 56.1007C166.266 55.9521 166.229 55.7664 166.117 55.655C166.043 55.5065 165.894 55.4322 165.745 55.3579C165.633 55.2837 165.335 55.2837 164.963 55.2837Z" fill="#606060"/>
<path d="M168.686 59.9257V54.6523H170.026C170.547 54.6523 170.994 54.8009 171.292 55.0608C171.59 55.3208 171.776 55.6922 171.776 56.1378C171.776 56.4349 171.701 56.6948 171.553 56.9548C171.404 57.1776 171.18 57.3633 170.882 57.4747C171.069 57.5861 171.217 57.7347 171.366 57.9203C171.515 58.106 171.739 58.4403 172.036 58.923C172.223 59.2201 172.372 59.4429 172.483 59.5915L172.781 59.9629H171.888L171.664 59.6286C171.664 59.6286 171.627 59.5915 171.627 59.5543L171.478 59.3315L171.255 58.9602L170.994 58.5517C170.845 58.3289 170.696 58.1803 170.547 58.0318C170.436 57.9203 170.287 57.8089 170.212 57.7718C170.101 57.6975 169.914 57.6975 169.691 57.6975H169.505V60H168.686V59.9257ZM169.654 55.2837H169.431V56.9548H169.728C170.101 56.9548 170.361 56.9177 170.51 56.8434C170.659 56.7691 170.771 56.6948 170.845 56.5463C170.92 56.3977 170.957 56.2492 170.957 56.1007C170.957 55.9521 170.92 55.7664 170.808 55.655C170.733 55.5065 170.585 55.4322 170.436 55.3579C170.324 55.2837 170.026 55.2837 169.654 55.2837Z" fill="#606060"/>
<path d="M175.499 54.5409C176.318 54.5409 176.988 54.8009 177.546 55.3208C178.105 55.8407 178.365 56.472 178.365 57.2519C178.365 58.0317 178.105 58.663 177.546 59.1829C176.988 59.7028 176.318 59.9628 175.461 59.9628C174.68 59.9628 174.01 59.7028 173.451 59.1829C172.93 58.663 172.669 58.0317 172.669 57.2519C172.669 56.472 172.93 55.8035 173.488 55.2836C174.01 54.8008 174.68 54.5409 175.499 54.5409ZM175.536 55.2836C174.94 55.2836 174.419 55.4693 174.047 55.8407C173.674 56.212 173.451 56.6948 173.451 57.289C173.451 57.846 173.637 58.3288 174.047 58.7002C174.456 59.0715 174.94 59.2572 175.536 59.2572C176.132 59.2572 176.615 59.0715 177.025 58.663C177.434 58.2545 177.621 57.8089 177.621 57.2147C177.621 56.6577 177.434 56.1749 177.025 55.8035C176.615 55.4322 176.094 55.2836 175.536 55.2836Z" fill="#606060"/>
<path d="M180.599 57.6975L180.04 57.3633C179.668 57.1404 179.408 56.9176 179.259 56.6948C179.11 56.472 179.035 56.2492 179.035 55.9521C179.035 55.5436 179.184 55.2094 179.482 54.9494C179.78 54.6894 180.152 54.5409 180.599 54.5409C181.046 54.5409 181.455 54.6523 181.827 54.9123V55.7664C181.455 55.395 181.046 55.2094 180.599 55.2094C180.338 55.2094 180.152 55.2836 180.003 55.395C179.854 55.5064 179.78 55.655 179.78 55.8407C179.78 55.9892 179.854 56.1378 179.966 56.2863C180.078 56.4349 180.264 56.5834 180.524 56.7319L181.12 57.0662C181.753 57.4375 182.088 57.9574 182.088 58.5516C182.088 58.9601 181.939 59.3315 181.678 59.5914C181.381 59.8514 181.008 59.9999 180.562 59.9999C180.04 59.9999 179.556 59.8514 179.147 59.5172V58.5516C179.556 59.0715 180.04 59.3315 180.562 59.3315C180.785 59.3315 181.008 59.2572 181.157 59.1458C181.306 58.9973 181.381 58.8487 181.381 58.663C181.306 58.2917 181.046 57.9946 180.599 57.6975Z" fill="#606060"/>
<path d="M184.992 54.6152H188.007V55.2836H185.774V56.8805H187.933V57.5489H185.774V59.1829H188.082V59.8514H184.992V54.6152Z" fill="#606060"/>
<path d="M191.06 54.6152H193.889V55.2836H191.804V56.7691H193.889V57.4375H191.804V59.8885H191.06V54.6152Z" fill="#606060"/>
<path d="M194.671 54.6152H197.686V55.2836H195.453V56.8805H197.612V57.5489H195.453V59.1829H197.761V59.8514H194.671V54.6152Z" fill="#606060"/>
<path d="M198.58 59.9257V54.6523H199.92C200.441 54.6523 200.888 54.8009 201.186 55.0608C201.484 55.3208 201.67 55.6922 201.67 56.1378C201.67 56.4349 201.595 56.6948 201.447 56.9548C201.298 57.1776 201.074 57.3633 200.776 57.4747C200.963 57.5861 201.111 57.7347 201.26 57.9203C201.409 58.106 201.633 58.4403 201.93 58.923C202.117 59.2201 202.266 59.4429 202.377 59.5915L202.675 59.9629H201.782L201.558 59.6286C201.558 59.6286 201.521 59.5915 201.521 59.5543L201.372 59.3315L201.149 58.9602L200.888 58.5517C200.739 58.3289 200.59 58.1803 200.441 58.0318C200.292 57.8832 200.181 57.8089 200.106 57.7718C199.995 57.6975 199.808 57.6975 199.585 57.6975H199.399V60H198.58V59.9257ZM199.585 55.2837H199.362V56.9548H199.66C200.032 56.9548 200.292 56.9177 200.441 56.8434C200.59 56.7691 200.702 56.6948 200.776 56.5463C200.851 56.3977 200.888 56.2492 200.888 56.1007C200.888 55.9521 200.851 55.7664 200.739 55.655C200.627 55.5436 200.516 55.4322 200.367 55.3579C200.218 55.2837 199.957 55.2837 199.585 55.2837Z" fill="#606060"/>
<path d="M203.271 59.9257V54.6523H204.611C205.132 54.6523 205.579 54.8009 205.877 55.0608C206.174 55.3208 206.361 55.6922 206.361 56.1378C206.361 56.4349 206.286 56.6948 206.137 56.9548C205.988 57.1776 205.765 57.3633 205.467 57.4747C205.653 57.5861 205.802 57.7347 205.951 57.9203C206.1 58.106 206.323 58.4403 206.621 58.923C206.807 59.2201 206.956 59.4429 207.068 59.5915L207.366 59.9629H206.472L206.249 59.6286C206.249 59.6286 206.212 59.5915 206.212 59.5543L206.063 59.3315L205.839 58.9602L205.579 58.5517C205.43 58.3289 205.281 58.1803 205.132 58.0318C204.983 57.8832 204.871 57.8089 204.797 57.7718C204.685 57.6975 204.499 57.6975 204.276 57.6975H204.09V60H203.271V59.9257ZM204.276 55.2837H204.052V56.9548H204.35C204.722 56.9548 204.983 56.9177 205.132 56.8434C205.281 56.7691 205.393 56.6948 205.467 56.5463C205.541 56.3977 205.579 56.2492 205.579 56.1007C205.579 55.9521 205.541 55.7664 205.43 55.655C205.318 55.5436 205.206 55.4322 205.058 55.3579C204.909 55.2837 204.648 55.2837 204.276 55.2837Z" fill="#606060"/>
<path d="M209.637 54.6152H210.158L212.54 59.9257H211.759L211.051 58.366H208.78L208.11 59.9257H207.328L209.637 54.6152ZM210.753 57.6604L209.897 55.7293L209.115 57.6604H210.753Z" fill="#606060"/>
<path d="M215.705 57.3261H217.492V59.5543C216.822 59.8514 216.189 59.9628 215.556 59.9628C214.662 59.9628 213.992 59.7028 213.434 59.1829C212.913 58.663 212.652 58.0317 212.652 57.289C212.652 56.5091 212.913 55.8407 213.471 55.3208C214.029 54.8009 214.7 54.5409 215.519 54.5409C215.816 54.5409 216.114 54.578 216.375 54.6523C216.635 54.7266 216.97 54.838 217.38 55.0237V55.8035C216.747 55.4322 216.114 55.2465 215.481 55.2465C214.886 55.2465 214.402 55.4322 214.029 55.8407C213.657 56.2492 213.434 56.7319 213.434 57.289C213.434 57.8832 213.62 58.3659 214.029 58.7744C214.439 59.1458 214.923 59.3315 215.556 59.3315C215.854 59.3315 216.226 59.2572 216.635 59.1087L216.71 59.0715V57.9574H215.705V57.3261Z" fill="#606060"/>
<path d="M218.571 54.6152H221.587V55.2836H219.353V56.8805H221.512V57.5489H219.353V59.1829H221.661V59.8514H218.571V54.6152Z" fill="#606060"/>
<path d="M226.687 54.6152H227.394V59.8885H226.724L223.188 55.8035V59.8885H222.48V54.6152H223.113L226.687 58.7373V54.6152Z" fill="#606060"/>
<path d="M229.851 57.6975L229.293 57.3633C228.921 57.1404 228.66 56.9176 228.511 56.6948C228.362 56.472 228.288 56.2492 228.288 55.9521C228.288 55.5436 228.437 55.2094 228.735 54.9494C229.032 54.6894 229.405 54.5409 229.851 54.5409C230.298 54.5409 230.708 54.6523 231.08 54.9123V55.7664C230.708 55.395 230.298 55.2094 229.851 55.2094C229.591 55.2094 229.405 55.2836 229.256 55.395C229.107 55.5064 229.032 55.655 229.032 55.8407C229.032 55.9892 229.107 56.1378 229.219 56.2863C229.33 56.4349 229.516 56.5834 229.777 56.7319L230.373 57.0662C231.005 57.4375 231.341 57.9574 231.341 58.5516C231.341 58.9601 231.192 59.3315 230.931 59.5914C230.633 59.8514 230.261 59.9999 229.814 59.9999C229.293 59.9999 228.809 59.8514 228.4 59.5172V58.5516C228.809 59.0715 229.293 59.3315 229.814 59.3315C230.038 59.3315 230.261 59.2572 230.41 59.1458C230.559 58.9973 230.633 58.8487 230.633 58.663C230.559 58.2917 230.298 57.9946 229.851 57.6975Z" fill="#606060"/>
</svg>
