<svg width="140" height="85" viewBox="0 0 140 85" fill="none" xmlns="http://www.w3.org/2000/svg">
<g clip-path="url(#clip0)">
<path d="M77.9144 41.5827V49.2266H47.5701V0H57.3783V41.5827H77.9144Z" fill="#A3C35A"/>
<path d="M59.3707 7.64388V0H89.715V49.2266H79.9067V7.64388H59.3707Z" fill="#A3C35A"/>
<path d="M59.2787 10.1511H75.7382V13.8507H63.4472V22.6871H75.3397V26.3867H63.4472V35.3759H76.1366V39.0756H59.2787V10.1511Z" fill="white"/>
<path d="M0 64.1475H1.8697V75.4299H7.72401V77.1115H0V64.1475Z" fill="#A3C35A"/>
<path d="M16.766 63.964C18.789 63.964 20.4441 64.6061 21.7928 65.8597C23.1414 67.1133 23.7851 68.7032 23.7851 70.6295C23.7851 72.5558 23.1108 74.1151 21.7621 75.3687C20.4135 76.6223 18.7277 77.2338 16.6741 77.2338C14.7124 77.2338 13.0879 76.6223 11.7699 75.3687C10.452 74.1151 9.80829 72.5558 9.80829 70.6601C9.80829 68.7338 10.452 67.1133 11.7699 65.8597C13.0879 64.5755 14.7431 63.964 16.766 63.964ZM16.8273 65.7068C15.3254 65.7068 14.1301 66.1655 13.1492 67.1133C12.1991 68.0306 11.7086 69.223 11.7086 70.6601C11.7086 72.0665 12.1991 73.2284 13.1492 74.1457C14.0994 75.063 15.3254 75.5522 16.766 75.5522C18.2066 75.5522 19.4327 75.0935 20.3828 74.1457C21.3637 73.1978 21.8234 72.036 21.8234 70.5989C21.8234 69.223 21.333 68.0611 20.3828 67.1439C19.4327 66.196 18.2373 65.7068 16.8273 65.7068Z" fill="#A3C35A"/>
<path d="M27.126 64.1475H28.9957V76.9281C28.9957 78.1205 28.8731 79.0072 28.6279 79.5881C28.3827 80.1691 27.9842 80.6277 27.4325 80.964C26.8808 81.3004 26.2371 81.4838 25.4709 81.4838C25.3483 81.4838 25.1644 81.4533 24.8578 81.4227L24.5207 79.7105H24.9805C25.5015 79.7105 25.9306 79.6493 26.2065 79.527C26.4823 79.4047 26.6969 79.1601 26.8808 78.8543C27.0341 78.518 27.126 77.8454 27.126 76.7752V64.1475Z" fill="#A3C35A"/>
<path d="M37.0875 64.0558H38.4055L44.2291 77.081H42.2981L40.551 73.2284H35.0032L33.3787 77.081H31.4784L37.0875 64.0558ZM39.8154 71.6079L37.7312 66.8993L35.8002 71.6079H39.8154Z" fill="#A3C35A"/>
<path d="M49.8995 71.669L48.4896 70.8129C47.6007 70.2626 46.9571 69.7428 46.5893 69.223C46.2214 68.7032 46.0375 68.0917 46.0375 67.419C46.0375 66.41 46.4053 65.5845 47.1103 64.9424C47.8153 64.3003 48.7348 63.9946 49.8689 63.9946C50.9417 63.9946 51.9531 64.3003 52.842 64.9118V67.0215C51.8918 66.1349 50.911 65.6762 49.8076 65.6762C49.1946 65.6762 48.7042 65.8291 48.3057 66.1043C47.9072 66.3795 47.7233 66.7464 47.7233 67.1744C47.7233 67.5719 47.8766 67.9388 48.1524 68.2751C48.4283 68.6115 48.8881 68.9784 49.5317 69.3453L50.9417 70.1708C52.5355 71.1187 53.3324 72.3111 53.3324 73.7788C53.3324 74.8183 52.9953 75.6744 52.2903 76.3165C51.5853 76.9586 50.6965 77.2949 49.5624 77.2949C48.275 77.2949 47.1103 76.8975 46.0682 76.1025V73.7482C47.0797 75.0323 48.2444 75.6439 49.5624 75.6439C50.1447 75.6439 50.6352 75.491 51.003 75.1547C51.4014 74.8183 51.5853 74.4208 51.5853 73.9316C51.616 73.1367 51.0336 72.3723 49.8995 71.669Z" fill="#A3C35A"/>
<path d="M62.2212 64.1475H69.5774V65.7986H64.0602V69.7428H69.3935V71.3939H64.0602V75.4299H69.7306V77.081H62.2212V64.1475Z" fill="white"/>
<path d="M83.7994 64.1475H85.5465V77.1115H83.6768V67.0216L79.6922 72.036H79.355L75.3091 67.0216V77.1115H73.4394V64.1475H75.1865L79.5083 69.4677L83.7994 64.1475Z" fill="white"/>
<path d="M96.4275 63.964C98.4504 63.964 100.106 64.6061 101.454 65.8597C102.803 67.1133 103.447 68.7032 103.447 70.6295C103.447 72.5558 102.772 74.1151 101.424 75.3687C100.075 76.6223 98.3891 77.2338 96.3355 77.2338C94.3739 77.2338 92.7494 76.6223 91.4314 75.3687C90.1134 74.1151 89.4697 72.5558 89.4697 70.6601C89.4697 68.7338 90.1134 67.1133 91.4314 65.8597C92.7494 64.5755 94.4045 63.964 96.4275 63.964ZM96.4888 65.7068C94.9869 65.7068 93.7915 66.1655 92.8107 67.1133C91.8298 68.0611 91.3701 69.223 91.3701 70.6601C91.3701 72.0665 91.8605 73.2284 92.8107 74.1457C93.7608 75.063 94.9869 75.5522 96.4275 75.5522C97.8681 75.5522 99.0941 75.0935 100.044 74.1457C100.994 73.1978 101.485 72.036 101.485 70.5989C101.485 69.223 100.994 68.0611 100.044 67.1439C99.0941 66.196 97.8987 65.7068 96.4888 65.7068Z" fill="white"/>
<path d="M107.462 64.1475H114.389V65.7986H109.331V69.4065H114.389V71.0576H109.331V77.1115H107.462V64.1475Z" fill="white"/>
<path d="M118.098 64.1475H125.454V65.7986H119.937V69.7428H125.27V71.3939H119.937V75.4299H125.607V77.081H118.067V64.1475H118.098Z" fill="white"/>
<path d="M129.408 77.1115V64.1475H132.657C133.975 64.1475 135.017 64.4839 135.783 65.1259C136.549 65.768 136.948 66.6547 136.948 67.7554C136.948 68.5198 136.764 69.1619 136.366 69.7123C135.967 70.2626 135.446 70.6601 134.741 70.9353C135.17 71.2105 135.569 71.5774 135.967 72.036C136.366 72.4946 136.917 73.3202 137.653 74.482C138.113 75.2159 138.48 75.7662 138.756 76.1331L139.431 77.0504H137.224L136.672 76.1943C136.641 76.1637 136.611 76.1025 136.549 76.0414L136.182 75.5216L135.599 74.5738L134.986 73.5648C134.588 73.045 134.251 72.6169 133.944 72.2806C133.638 71.9748 133.331 71.7302 133.086 71.6079C132.841 71.4551 132.381 71.3939 131.799 71.3939H131.308V77.0504H129.408V77.1115ZM131.829 65.7069H131.278V69.804H131.982C132.933 69.804 133.576 69.7123 133.913 69.5594C134.251 69.4065 134.527 69.1619 134.741 68.8256C134.956 68.4892 135.048 68.1223 135.048 67.7249C135.048 67.3274 134.925 66.9605 134.71 66.6241C134.496 66.2878 134.189 66.0738 133.791 65.9209C133.392 65.768 132.718 65.7069 131.829 65.7069Z" fill="white"/>
<path d="M35.2178 83.9604V84.6331C34.758 84.8777 34.237 85 33.624 85C33.1335 85 32.7351 84.9083 32.3979 84.6942C32.0608 84.5108 31.7849 84.2356 31.601 83.8993C31.4171 83.5629 31.2945 83.196 31.2945 82.7985C31.2945 82.1565 31.5091 81.6367 31.9688 81.2086C32.4286 80.7806 32.9803 80.5665 33.6546 80.5665C34.1144 80.5665 34.6354 80.6888 35.1872 80.9334V81.6061C34.6661 81.3003 34.1757 81.178 33.6853 81.178C33.1948 81.178 32.7657 81.3309 32.4286 81.6367C32.0914 81.9424 31.9382 82.3399 31.9382 82.8291C31.9382 83.3183 32.0914 83.6852 32.4286 84.0216C32.7657 84.3273 33.1642 84.4802 33.6853 84.4802C34.2063 84.4496 34.7274 84.2662 35.2178 83.9604Z" fill="white"/>
<path d="M38.1296 80.5359C38.804 80.5359 39.3557 80.75 39.8154 81.178C40.2752 81.6061 40.4897 82.1259 40.4897 82.768C40.4897 83.41 40.2752 83.9298 39.8154 84.3579C39.3557 84.7859 38.804 85 38.099 85C37.4553 85 36.9036 84.7859 36.4438 84.3579C36.0147 83.9298 35.8002 83.41 35.8002 82.768C35.8002 82.1259 36.0147 81.5755 36.4745 81.1475C36.9036 80.75 37.4553 80.5359 38.1296 80.5359ZM38.1603 81.1475C37.6699 81.1475 37.2408 81.3003 36.9342 81.6061C36.6277 81.9118 36.4438 82.3093 36.4438 82.7985C36.4438 83.2572 36.5971 83.6547 36.9342 83.9604C37.2714 84.2662 37.6699 84.419 38.1296 84.419C38.62 84.419 39.0185 84.2662 39.3557 83.9298C39.6928 83.6241 39.8461 83.2266 39.8461 82.7374C39.8461 82.2788 39.6928 81.8813 39.3557 81.5755C39.0492 81.3003 38.62 81.1475 38.1603 81.1475Z" fill="white"/>
<path d="M44.7195 80.5971H45.3019V84.9388H44.6889V81.545L43.3402 83.2266H43.2176L41.869 81.545V84.9388H41.256V80.5971H41.8383L43.2789 82.3705L44.7195 80.5971Z" fill="white"/>
<path d="M46.2521 80.5971H48.7349V81.1475H46.8958V82.4622H48.6736V83.0126H46.8958V84.3579H48.7962V84.9083H46.2521V80.5971ZM48.0605 79.3435L47.3556 80.2913H47.0184L47.4475 79.3435H48.0605Z" fill="white"/>
<path d="M49.4704 84.9694V80.6277H50.5738C51.0029 80.6277 51.3708 80.75 51.616 80.964C51.8612 81.178 52.0144 81.4838 52.0144 81.8507C52.0144 82.0953 51.9531 82.3093 51.8305 82.5234C51.7079 82.7068 51.524 82.8597 51.2788 82.9514C51.4321 83.0432 51.5547 83.1655 51.6773 83.3183C51.7999 83.4712 51.9838 83.7464 52.229 84.1439C52.3822 84.3885 52.5048 84.5719 52.5968 84.6942L52.842 85H52.1064L51.9225 84.7248C51.9225 84.7248 51.8918 84.6942 51.8918 84.6637L51.7692 84.4802L51.5853 84.1744L51.3708 83.8381C51.2482 83.6547 51.1255 83.5324 51.0029 83.4101C50.8803 83.3183 50.7884 83.2266 50.7271 83.196C50.6658 83.1655 50.4819 83.1349 50.298 83.1349H50.1447V85.0306H49.4704V84.9694ZM50.298 81.1475H50.1141V82.5234H50.3593C50.6658 82.5234 50.8803 82.4928 51.0029 82.4316C51.1255 82.3705 51.2175 82.3093 51.2788 82.187C51.3401 82.0647 51.3708 81.9424 51.3708 81.8201C51.3708 81.6978 51.3401 81.5449 51.2482 81.4532C51.1562 81.3615 51.0642 81.2698 50.9416 81.2086C50.819 81.1475 50.6045 81.1475 50.298 81.1475Z" fill="white"/>
<path d="M57.0719 83.9604V84.6331C56.6121 84.8777 56.091 85 55.478 85C54.9876 85 54.5891 84.9083 54.252 84.6942C53.9148 84.5108 53.639 84.2356 53.4551 83.8993C53.2712 83.5629 53.1486 83.196 53.1486 82.7985C53.1486 82.1565 53.3631 81.6367 53.8229 81.2086C54.2826 80.7806 54.8344 80.5665 55.5087 80.5665C55.9684 80.5665 56.4895 80.6888 57.0412 80.9334V81.6061C56.5202 81.3003 56.0297 81.178 55.5393 81.178C55.0489 81.178 54.6198 81.3309 54.2826 81.6367C53.9455 81.9424 53.7922 82.3399 53.7922 82.8291C53.7922 83.3183 53.9455 83.6852 54.2826 84.0216C54.6198 84.3273 55.0183 84.4802 55.5393 84.4802C56.0604 84.4496 56.5815 84.2662 57.0719 83.9604Z" fill="white"/>
<path d="M57.8381 80.5971H58.4511V84.9388H57.8381V80.5971Z" fill="white"/>
<path d="M61.5775 80.5359C62.2518 80.5359 62.8035 80.75 63.2633 81.178C63.7231 81.6061 63.9376 82.1259 63.9376 82.768C63.9376 83.41 63.7231 83.9298 63.2633 84.3579C62.8035 84.7859 62.2518 85 61.5469 85C60.9032 85 60.3515 84.7859 59.8917 84.3579C59.4626 83.9298 59.248 83.41 59.248 82.768C59.248 82.1259 59.4626 81.5755 59.9224 81.1475C60.3515 80.75 60.9032 80.5359 61.5775 80.5359ZM61.6082 81.1475C61.1177 81.1475 60.6886 81.3003 60.3821 81.6061C60.0756 81.9118 59.8917 82.3093 59.8917 82.7985C59.8917 83.2572 60.045 83.6547 60.3821 83.9604C60.7193 84.2662 61.1177 84.419 61.5775 84.419C62.0679 84.419 62.4664 84.2662 62.8035 83.9298C63.1407 83.6241 63.294 83.2266 63.294 82.7374C63.294 82.2788 63.1407 81.8813 62.8035 81.5755C62.497 81.3003 62.0986 81.1475 61.6082 81.1475Z" fill="white"/>
<path d="M66.4816 84.9388V80.5971H67.9529C68.5352 80.5971 69.0257 80.6888 69.3628 80.8723C69.7 81.0557 69.9758 81.3003 70.1904 81.6673C70.4049 82.0036 70.4969 82.4011 70.4969 82.7985C70.4969 83.1043 70.4356 83.3795 70.313 83.6241C70.1904 83.8993 70.0371 84.1133 69.8226 84.3273C69.608 84.5413 69.3628 84.6942 69.087 84.786C68.9337 84.8471 68.7804 84.9083 68.6272 84.9083C68.5046 84.9388 68.2287 84.9388 67.8303 84.9388H66.4816ZM67.8916 81.1475H67.1253V84.3885H67.9222C68.2287 84.3885 68.4739 84.3579 68.6578 84.3273C68.8417 84.2967 68.9643 84.2356 69.087 84.1744C69.2096 84.1133 69.3015 84.0216 69.3935 83.9298C69.7 83.6241 69.8532 83.2266 69.8532 82.7374C69.8532 82.2788 69.7 81.8813 69.3935 81.6061C69.2709 81.4838 69.1483 81.3921 68.995 81.3309C68.8417 81.2698 68.6885 81.2086 68.5659 81.178C68.4126 81.178 68.1981 81.1475 67.8916 81.1475Z" fill="white"/>
<path d="M71.2938 80.5971H73.7766V81.1475H71.9375V82.4622H73.7153V83.0126H71.9375V84.3579H73.8379V84.9083H71.2938V80.5971Z" fill="white"/>
<path d="M76.2593 80.5971H78.5887V81.1475H76.8723V82.3705H78.5887V82.9208H76.8723V84.9388H76.2593V80.5971Z" fill="white"/>
<path d="M79.263 80.5971H81.7457V81.1475H79.9067V82.4622H81.6844V83.0126H79.9067V84.3579H81.807V84.9083H79.263V80.5971Z" fill="white"/>
<path d="M82.4814 84.9694V80.6277H83.5848C84.0139 80.6277 84.3817 80.75 84.6269 80.964C84.8721 81.178 85.0254 81.4838 85.0254 81.8507C85.0254 82.0953 84.9641 82.3093 84.8415 82.5234C84.7189 82.7068 84.535 82.8597 84.2898 82.9514C84.443 83.0432 84.5656 83.1655 84.6882 83.3183C84.8108 83.4712 84.9947 83.7464 85.24 84.1439C85.3932 84.3885 85.5158 84.5719 85.6078 84.6942L85.853 85H85.1174L84.9334 84.7248C84.9334 84.7248 84.9028 84.6942 84.9028 84.6637L84.7802 84.4802L84.5963 84.1744L84.3817 83.8381C84.2591 83.6547 84.1365 83.5324 84.0139 83.4101C83.922 83.3183 83.7994 83.2266 83.7381 83.196C83.6461 83.1349 83.4929 83.1349 83.3089 83.1349H83.1557V85.0306H82.4814V84.9694ZM83.2783 81.1475H83.0944V82.5234H83.3396C83.6461 82.5234 83.8607 82.4928 83.9833 82.4316C84.1059 82.3705 84.1978 82.3093 84.2591 82.187C84.3204 82.0647 84.3511 81.9424 84.3511 81.8201C84.3511 81.6978 84.3204 81.5449 84.2285 81.4532C84.1672 81.3309 84.0446 81.2698 83.922 81.2086C83.83 81.1475 83.5848 81.1475 83.2783 81.1475Z" fill="white"/>
<path d="M86.3434 84.9694V80.6277H87.4468C87.8759 80.6277 88.2437 80.75 88.4889 80.964C88.7341 81.178 88.8874 81.4838 88.8874 81.8507C88.8874 82.0953 88.8261 82.3093 88.7035 82.5234C88.5809 82.7068 88.397 82.8597 88.1518 82.9514C88.305 83.0432 88.4276 83.1655 88.5502 83.3183C88.6728 83.4712 88.8567 83.7464 89.1019 84.1439C89.2552 84.3885 89.3778 84.5719 89.4697 84.6942L89.715 85H88.9793L88.7954 84.7248C88.7954 84.7248 88.7648 84.6942 88.7648 84.6637L88.6422 84.4802L88.4583 84.1744L88.2437 83.8381C88.1211 83.6547 87.9985 83.5324 87.8759 83.4101C87.784 83.3183 87.6614 83.2266 87.6001 83.196C87.5081 83.1349 87.3549 83.1349 87.1709 83.1349H87.0177V85.0306H86.3434V84.9694ZM87.1403 81.1475H86.9564V82.5234H87.2016C87.5081 82.5234 87.7227 82.4928 87.8453 82.4316C87.9679 82.3705 88.0598 82.3093 88.1211 82.187C88.1824 82.0647 88.2131 81.9424 88.2131 81.8201C88.2131 81.6978 88.1824 81.5449 88.0905 81.4532C88.0292 81.3309 87.9066 81.2698 87.784 81.2086C87.692 81.1475 87.4468 81.1475 87.1403 81.1475Z" fill="white"/>
<path d="M91.9525 80.5359C92.6268 80.5359 93.1786 80.75 93.6383 81.178C94.0981 81.6061 94.3126 82.1259 94.3126 82.768C94.3126 83.41 94.0981 83.9298 93.6383 84.3579C93.1786 84.7859 92.6268 85 91.9219 85C91.2782 85 90.7265 84.7859 90.2667 84.3579C89.8376 83.9298 89.623 83.41 89.623 82.768C89.623 82.1259 89.8376 81.5755 90.2974 81.1475C90.7265 80.75 91.2782 80.5359 91.9525 80.5359ZM91.9832 81.1475C91.4928 81.1475 91.0636 81.3003 90.7571 81.6061C90.4506 81.9118 90.2667 82.3093 90.2667 82.7985C90.2667 83.2572 90.42 83.6547 90.7571 83.9604C91.0943 84.2662 91.4928 84.419 91.9832 84.419C92.4736 84.419 92.872 84.2662 93.2092 83.9298C93.5464 83.5935 93.6996 83.2266 93.6996 82.7374C93.6996 82.2788 93.5464 81.8813 93.2092 81.5755C92.872 81.2698 92.4429 81.1475 91.9832 81.1475Z" fill="white"/>
<path d="M96.1517 83.1349L95.6919 82.8597C95.3854 82.6762 95.1708 82.4928 95.0482 82.3093C94.9256 82.1259 94.8643 81.9424 94.8643 81.6978C94.8643 81.3615 94.9869 81.0863 95.2321 80.8723C95.4773 80.6583 95.7838 80.5359 96.1517 80.5359C96.5195 80.5359 96.8566 80.6277 97.1631 80.8417V81.5449C96.8566 81.2392 96.5195 81.0863 96.1517 81.0863C95.9371 81.0863 95.7838 81.1475 95.6612 81.2392C95.5386 81.3309 95.4773 81.4532 95.4773 81.6061C95.4773 81.7284 95.5386 81.8507 95.6306 81.973C95.7225 82.0953 95.8758 82.2176 96.0903 82.3399L96.5808 82.6151C97.1018 82.9208 97.3777 83.3489 97.3777 83.8381C97.3777 84.1744 97.2551 84.4802 97.0405 84.6942C96.7953 84.9082 96.4888 85.0305 96.121 85.0305C95.6919 85.0305 95.2934 84.9082 94.9563 84.6331V83.8381C95.2934 84.2662 95.6919 84.4802 96.121 84.4802C96.3049 84.4802 96.4888 84.419 96.6114 84.3273C96.734 84.205 96.7953 84.0827 96.7953 83.9298C96.734 83.6241 96.5195 83.3795 96.1517 83.1349Z" fill="white"/>
<path d="M99.7684 80.5971H102.251V81.1475H100.412V82.4622H102.19V83.0126H100.412V84.3579H102.312V84.9083H99.7684V80.5971Z" fill="white"/>
<path d="M104.765 80.5971H107.094V81.1475H105.378V82.3705H107.094V82.9208H105.378V84.9388H104.765V80.5971Z" fill="white"/>
<path d="M107.738 80.5971H110.22V81.1475H108.381V82.4622H110.159V83.0126H108.381V84.3579H110.282V84.9083H107.738V80.5971Z" fill="white"/>
<path d="M110.956 84.9694V80.6277H112.059C112.489 80.6277 112.856 80.75 113.102 80.964C113.347 81.178 113.5 81.4838 113.5 81.8507C113.5 82.0953 113.439 82.3093 113.316 82.5234C113.194 82.7068 113.01 82.8597 112.764 82.9514C112.918 83.0432 113.04 83.1655 113.163 83.3183C113.285 83.4712 113.469 83.7464 113.715 84.1439C113.868 84.3885 113.99 84.5719 114.082 84.6942L114.328 85H113.592L113.408 84.7248C113.408 84.7248 113.377 84.6942 113.377 84.6637L113.255 84.4802L113.071 84.1744L112.856 83.8381C112.734 83.6547 112.611 83.5324 112.489 83.4101C112.366 83.2878 112.274 83.2266 112.213 83.196C112.121 83.1349 111.967 83.1349 111.784 83.1349H111.63V85.0306H110.956V84.9694ZM111.784 81.1475H111.6V82.5234H111.845C112.151 82.5234 112.366 82.4928 112.489 82.4316C112.611 82.3705 112.703 82.3093 112.764 82.187C112.826 82.0647 112.856 81.9424 112.856 81.8201C112.856 81.6978 112.826 81.5449 112.734 81.4532C112.642 81.3615 112.55 81.2698 112.427 81.2086C112.305 81.1475 112.09 81.1475 111.784 81.1475Z" fill="white"/>
<path d="M114.818 84.9694V80.6277H115.922C116.351 80.6277 116.718 80.75 116.964 80.964C117.209 81.178 117.362 81.4838 117.362 81.8507C117.362 82.0953 117.301 82.3093 117.178 82.5234C117.056 82.7068 116.872 82.8597 116.626 82.9514C116.78 83.0432 116.902 83.1655 117.025 83.3183C117.148 83.4712 117.331 83.7464 117.577 84.1439C117.73 84.3885 117.853 84.5719 117.944 84.6942L118.19 85H117.454L117.27 84.7248C117.27 84.7248 117.24 84.6942 117.24 84.6637L117.117 84.4802L116.933 84.1744L116.718 83.8381C116.596 83.6547 116.473 83.5324 116.351 83.4101C116.228 83.2878 116.136 83.2266 116.075 83.196C115.983 83.1349 115.83 83.1349 115.646 83.1349H115.492V85.0306H114.818V84.9694ZM115.646 81.1475H115.462V82.5234H115.707C116.013 82.5234 116.228 82.4928 116.351 82.4316C116.473 82.3705 116.565 82.3093 116.626 82.187C116.688 82.0647 116.718 81.9424 116.718 81.8201C116.718 81.6978 116.688 81.5449 116.596 81.4532C116.504 81.3615 116.412 81.2698 116.289 81.2086C116.167 81.1475 115.952 81.1475 115.646 81.1475Z" fill="white"/>
<path d="M120.059 80.5971H120.488L122.45 84.9694H121.806L121.224 83.6852H119.354L118.803 84.9694H118.159L120.059 80.5971ZM120.979 83.1043L120.274 81.5144L119.63 83.1043H120.979Z" fill="white"/>
<path d="M125.055 82.8291H126.527V84.6636C125.975 84.9082 125.454 85 124.933 85C124.197 85 123.645 84.7859 123.186 84.3579C122.757 83.9298 122.542 83.41 122.542 82.7985C122.542 82.1564 122.757 81.6061 123.216 81.178C123.676 80.75 124.228 80.5359 124.902 80.5359C125.147 80.5359 125.393 80.5665 125.607 80.6277C125.822 80.6888 126.098 80.7806 126.435 80.9334V81.5755C125.914 81.2698 125.393 81.1169 124.871 81.1169C124.381 81.1169 123.983 81.2698 123.676 81.6061C123.37 81.9424 123.186 82.3399 123.186 82.7985C123.186 83.2877 123.339 83.6852 123.676 84.0216C124.013 84.3273 124.412 84.4802 124.933 84.4802C125.178 84.4802 125.484 84.419 125.822 84.2967L125.883 84.2662V83.3489H125.055V82.8291Z" fill="white"/>
<path d="M127.416 80.5971H129.898V81.1475H128.059V82.4622H129.837V83.0126H128.059V84.3579H129.96V84.9083H127.416V80.5971Z" fill="white"/>
<path d="M134.097 80.5971H134.68V84.9388H134.128L131.216 81.5755V84.9388H130.634V80.5971H131.155L134.097 83.991V80.5971Z" fill="white"/>
<path d="M136.703 83.1349L136.243 82.8597C135.936 82.6762 135.722 82.4928 135.599 82.3093C135.477 82.1259 135.415 81.9424 135.415 81.6978C135.415 81.3615 135.538 81.0863 135.783 80.8723C136.028 80.6583 136.335 80.5359 136.703 80.5359C137.071 80.5359 137.408 80.6277 137.714 80.8417V81.5449C137.408 81.2392 137.071 81.0863 136.703 81.0863C136.488 81.0863 136.335 81.1475 136.212 81.2392C136.09 81.3309 136.028 81.4532 136.028 81.6061C136.028 81.7284 136.09 81.8507 136.182 81.973C136.274 82.0953 136.427 82.2176 136.641 82.3399L137.132 82.6151C137.653 82.9208 137.929 83.3489 137.929 83.8381C137.929 84.1744 137.806 84.4802 137.592 84.6942C137.346 84.9082 137.04 85.0305 136.672 85.0305C136.243 85.0305 135.845 84.9082 135.507 84.6331V83.8381C135.845 84.2662 136.243 84.4802 136.672 84.4802C136.856 84.4802 137.04 84.419 137.163 84.3273C137.285 84.205 137.346 84.0827 137.346 83.9298C137.285 83.6241 137.071 83.3795 136.703 83.1349Z" fill="white"/>
</g>
<defs>
<clipPath id="clip0">
<rect width="139.4" height="85" fill="white"/>
</clipPath>
</defs>
</svg>
