<svg width="175" height="45" viewBox="0 0 175 45" fill="none" xmlns="http://www.w3.org/2000/svg">
<path d="M27.6417 37.8791V44.8422H0V0H8.93468V37.8791H27.6417Z" fill="#A3C35A"/>
<path d="M10.75 6.96307V0H38.3917V44.8422H29.457V6.96307H10.75Z" fill="#A3C35A"/>
<path d="M10.666 9.24701H25.6595V12.6171H14.4633V20.6665H25.2965V24.0366H14.4633V32.2252H26.0225V35.5953H10.666V9.24701Z" fill="#495928"/>
<path d="M47.8613 25.9769H49.5645V36.2544H54.8974V37.7863H47.8613V25.9769Z" fill="#A3C35A"/>
<path d="M63.1339 25.8098C64.9767 25.8098 66.4844 26.3947 67.713 27.5367C68.9415 28.6786 69.5278 30.1269 69.5278 31.8816C69.5278 33.6363 68.9136 35.0568 67.685 36.1987C66.4565 37.3407 64.9209 37.8977 63.0502 37.8977C61.2632 37.8977 59.7834 37.3407 58.5828 36.1987C57.3822 35.0568 56.7959 33.6363 56.7959 31.9095C56.7959 30.1548 57.3822 28.6786 58.5828 27.5367C59.7834 26.3669 61.2912 25.8098 63.1339 25.8098ZM63.1898 27.3974C61.8217 27.3974 60.7327 27.8152 59.8393 28.6786C58.9737 29.5142 58.527 30.6004 58.527 31.9095C58.527 33.1907 58.9737 34.2491 59.8393 35.0846C60.7048 35.9202 61.8217 36.3658 63.1339 36.3658C64.4462 36.3658 65.5631 35.9481 66.4286 35.0846C67.3221 34.2212 67.7409 33.1628 67.7409 31.8538C67.7409 30.6004 67.2942 29.542 66.4286 28.7065C65.5631 27.843 64.4741 27.3974 63.1898 27.3974Z" fill="#A3C35A"/>
<path d="M72.5715 25.9769H74.2747V37.6192C74.2747 38.7054 74.163 39.5131 73.9396 40.0423C73.7163 40.5715 73.3533 40.9893 72.8507 41.2957C72.3482 41.602 71.7618 41.7692 71.0638 41.7692C70.9521 41.7692 70.7846 41.7413 70.5054 41.7135L70.1982 40.1537H70.6171C71.0917 40.1537 71.4826 40.098 71.7339 39.9866C71.9852 39.8752 72.1806 39.6524 72.3481 39.3739C72.4878 39.0675 72.5715 38.4547 72.5715 37.4799V25.9769Z" fill="#A3C35A"/>
<path d="M81.6457 25.8934H82.8463L88.1512 37.7585H86.3922L84.8007 34.2491H79.747L78.2672 37.7585H76.5361L81.6457 25.8934ZM84.1306 32.7729L82.232 28.4836L80.473 32.7729H84.1306Z" fill="#A3C35A"/>
<path d="M93.3159 32.8286L92.0315 32.0487C91.2218 31.5474 90.6355 31.0739 90.3004 30.6004C89.9654 30.1269 89.7979 29.5699 89.7979 28.9571C89.7979 28.038 90.1329 27.286 90.7751 26.7011C91.4173 26.1162 92.2549 25.8376 93.288 25.8376C94.2652 25.8376 95.1866 26.1162 95.9963 26.6732V28.595C95.1307 27.7873 94.2373 27.3695 93.2321 27.3695C92.6737 27.3695 92.227 27.5088 91.864 27.7595C91.501 28.0101 91.3335 28.3444 91.3335 28.7343C91.3335 29.0964 91.4731 29.4306 91.7244 29.737C91.9757 30.0433 92.3945 30.3776 92.9808 30.7118L94.2652 31.4638C95.7171 32.3272 96.443 33.4135 96.443 34.7504C96.443 35.6974 96.1359 36.4772 95.4937 37.0621C94.8515 37.647 94.0418 37.9534 93.0088 37.9534C91.8361 37.9534 90.7751 37.5913 89.8258 36.8672V34.7225C90.7472 35.8923 91.8082 36.4494 93.0088 36.4494C93.5393 36.4494 93.986 36.3101 94.321 36.0037C94.684 35.6974 94.8515 35.3353 94.8515 34.8897C94.8795 34.1655 94.349 33.4692 93.3159 32.8286Z" fill="#A3C35A"/>
<path d="M104.54 25.9769H111.241V27.4809H106.215V31.0739H111.074V32.5779H106.215V36.2544H111.381V37.7584H104.54V25.9769Z" fill="#495928"/>
<path d="M124.197 25.9769H125.789V37.7863H124.085V28.595L120.456 33.1628H120.148L116.463 28.595V37.7863H114.76V25.9769H116.351L120.288 30.8232L124.197 25.9769Z" fill="#495928"/>
<path d="M135.699 25.8098C137.542 25.8098 139.05 26.3947 140.278 27.5367C141.507 28.6786 142.093 30.1269 142.093 31.8816C142.093 33.6363 141.479 35.0568 140.25 36.1987C139.022 37.3407 137.486 37.8977 135.616 37.8977C133.829 37.8977 132.349 37.3407 131.148 36.1987C129.948 35.0568 129.361 33.6363 129.361 31.9095C129.361 30.1548 129.948 28.6786 131.148 27.5367C132.349 26.3669 133.857 25.8098 135.699 25.8098ZM135.755 27.3974C134.387 27.3974 133.298 27.8152 132.405 28.6786C131.511 29.542 131.092 30.6004 131.092 31.9095C131.092 33.1907 131.539 34.2491 132.405 35.0846C133.27 35.9202 134.387 36.3658 135.699 36.3658C137.012 36.3658 138.128 35.9481 138.994 35.0846C139.86 34.2212 140.306 33.1628 140.306 31.8538C140.306 30.6004 139.86 29.542 138.994 28.7065C138.128 27.843 137.04 27.3974 135.755 27.3974Z" fill="#495928"/>
<path d="M145.751 25.9769H152.061V27.4809H147.454V30.7675H152.061V32.2715H147.454V37.7863H145.751V25.9769Z" fill="#495928"/>
<path d="M155.44 25.9769H162.141V27.4809H157.115V31.0739H161.974V32.5779H157.115V36.2544H162.281V37.7584H155.412V25.9769H155.44Z" fill="#495928"/>
<path d="M165.742 37.7863V25.9769H168.702C169.902 25.9769 170.852 26.2833 171.55 26.8682C172.248 27.4531 172.611 28.2608 172.611 29.2635C172.611 29.9598 172.443 30.5447 172.08 31.046C171.717 31.5474 171.243 31.9095 170.6 32.1601C170.991 32.4108 171.354 32.745 171.717 33.1628C172.08 33.5806 172.583 34.3326 173.253 35.391C173.672 36.0595 174.007 36.5608 174.258 36.895L174.872 37.7306H172.862L172.359 36.9507C172.331 36.9229 172.304 36.8672 172.248 36.8115L171.913 36.338L171.382 35.4745L170.824 34.5554C170.461 34.0819 170.154 33.692 169.874 33.3856C169.595 33.1071 169.316 32.8843 169.093 32.7729C168.869 32.6336 168.451 32.5779 167.92 32.5779H167.473V37.7306H165.742V37.7863ZM167.948 27.3974H167.445V31.1296H168.088C168.953 31.1296 169.539 31.046 169.847 30.9068C170.154 30.7675 170.405 30.5447 170.6 30.2383C170.796 29.932 170.88 29.5977 170.88 29.2356C170.88 28.8736 170.768 28.5393 170.572 28.233C170.377 27.9266 170.098 27.7316 169.735 27.5924C169.372 27.4531 168.758 27.3974 167.948 27.3974Z" fill="#495928"/>
<path d="M79.942 44.0251V44.6379C79.5232 44.8607 79.0486 44.9721 78.4902 44.9721C78.0434 44.9721 77.6804 44.8886 77.3733 44.6936C77.0662 44.5265 76.8149 44.2758 76.6474 43.9694C76.4798 43.6631 76.3682 43.3288 76.3682 42.9668C76.3682 42.3819 76.5636 41.9084 76.9824 41.5184C77.4012 41.1285 77.9038 40.9335 78.5181 40.9335C78.9369 40.9335 79.4115 41.0449 79.9141 41.2678V41.8805C79.4395 41.602 78.9927 41.4906 78.546 41.4906C78.0993 41.4906 77.7084 41.6298 77.4012 41.9084C77.0941 42.1869 76.9545 42.549 76.9545 42.9946C76.9545 43.4402 77.0941 43.7745 77.4012 44.0808C77.7084 44.3594 78.0713 44.4986 78.546 44.4986C79.0206 44.4708 79.4953 44.3037 79.942 44.0251Z" fill="#606060"/>
<path d="M82.5946 40.9057C83.2089 40.9057 83.7115 41.1007 84.1303 41.4906C84.5491 41.8805 84.7445 42.354 84.7445 42.9389C84.7445 43.5238 84.5491 43.9973 84.1303 44.3872C83.7115 44.7772 83.2089 44.9721 82.5667 44.9721C81.9804 44.9721 81.4778 44.7772 81.059 44.3872C80.6681 43.9973 80.4727 43.5238 80.4727 42.9389C80.4727 42.354 80.6681 41.8527 81.0869 41.4627C81.4778 41.1007 81.9804 40.9057 82.5946 40.9057ZM82.6226 41.4627C82.1758 41.4627 81.7849 41.602 81.5057 41.8805C81.2265 42.1591 81.059 42.5211 81.059 42.9668C81.059 43.3846 81.1986 43.7466 81.5057 44.0252C81.8129 44.3037 82.1758 44.4429 82.5946 44.4429C83.0414 44.4429 83.4043 44.3037 83.7115 43.9973C84.0186 43.7188 84.1582 43.3567 84.1582 42.9111C84.1582 42.4933 84.0186 42.1312 83.7115 41.8527C83.4323 41.602 83.0414 41.4627 82.6226 41.4627Z" fill="#606060"/>
<path d="M88.5974 40.9614H89.1279V44.9164H88.5695V41.8248L87.341 43.3567H87.2293L86.0008 41.8248V44.9164H85.4424V40.9614H85.9729L87.2852 42.5768L88.5974 40.9614Z" fill="#606060"/>
<path d="M89.9932 40.9614H92.2548V41.4627H90.5795V42.6604H92.1989V43.1617H90.5795V44.3872H92.3106V44.8886H89.9932V40.9614ZM91.6405 39.8195L90.9983 40.6829H90.6912L91.0821 39.8195H91.6405Z" fill="#606060"/>
<path d="M92.9258 44.9443V40.9893H93.9309C94.3218 40.9893 94.6569 41.1007 94.8802 41.2956C95.1036 41.4906 95.2432 41.7691 95.2432 42.1034C95.2432 42.3262 95.1874 42.5211 95.0757 42.7161C94.964 42.8832 94.7965 43.0225 94.5731 43.106C94.7127 43.1896 94.8244 43.301 94.9361 43.4403C95.0478 43.5795 95.2153 43.8302 95.4387 44.1923C95.5783 44.4151 95.69 44.5822 95.7737 44.6936L95.9971 44.9721H95.327L95.1595 44.7215C95.1595 44.7215 95.1315 44.6936 95.1315 44.6658L95.0199 44.4986L94.8523 44.2201L94.6569 43.9138C94.5452 43.7466 94.4335 43.6352 94.3218 43.5238C94.2101 43.4403 94.1264 43.3567 94.0705 43.3289C94.0147 43.301 93.8472 43.2731 93.6797 43.2731H93.54V45H92.9258V44.9443ZM93.6797 41.4627H93.5121V42.7161H93.7355C94.0147 42.7161 94.2101 42.6882 94.3218 42.6325C94.4335 42.5768 94.5173 42.5211 94.5731 42.4097C94.629 42.2983 94.6569 42.1869 94.6569 42.0755C94.6569 41.9641 94.629 41.8248 94.5452 41.7413C94.4614 41.6577 94.3777 41.5742 94.266 41.5185C94.1543 41.4627 93.9589 41.4627 93.6797 41.4627Z" fill="#606060"/>
<path d="M99.8502 44.0251V44.6379C99.4314 44.8607 98.9568 44.9721 98.3984 44.9721C97.9516 44.9721 97.5887 44.8886 97.2815 44.6936C96.9744 44.5265 96.7231 44.2758 96.5556 43.9694C96.3881 43.6631 96.2764 43.3288 96.2764 42.9668C96.2764 42.3819 96.4718 41.9084 96.8906 41.5184C97.3094 41.1285 97.812 40.9335 98.4263 40.9335C98.8451 40.9335 99.3197 41.0449 99.8223 41.2678V41.8805C99.3477 41.602 98.9009 41.4906 98.4542 41.4906C98.0075 41.4906 97.6166 41.6298 97.3094 41.9084C97.0023 42.1869 96.8627 42.549 96.8627 42.9946C96.8627 43.4402 97.0023 43.7745 97.3094 44.0808C97.6166 44.3594 97.9795 44.4986 98.4542 44.4986C98.9289 44.4708 99.4035 44.3037 99.8502 44.0251Z" fill="#606060"/>
<path d="M100.548 40.9614H101.106V44.9164H100.548V40.9614Z" fill="#606060"/>
<path d="M103.954 40.9057C104.568 40.9057 105.071 41.1007 105.49 41.4906C105.908 41.8805 106.104 42.354 106.104 42.9389C106.104 43.5238 105.908 43.9973 105.49 44.3872C105.071 44.7772 104.568 44.9721 103.926 44.9721C103.34 44.9721 102.837 44.7772 102.418 44.3872C102.027 43.9973 101.832 43.5238 101.832 42.9389C101.832 42.354 102.027 41.8527 102.446 41.4627C102.837 41.1007 103.34 40.9057 103.954 40.9057ZM103.982 41.4627C103.535 41.4627 103.144 41.602 102.865 41.8805C102.586 42.1591 102.418 42.5211 102.418 42.9668C102.418 43.3846 102.558 43.7466 102.865 44.0252C103.172 44.3037 103.535 44.4429 103.954 44.4429C104.401 44.4429 104.764 44.3037 105.071 43.9973C105.378 43.7188 105.518 43.3567 105.518 42.9111C105.518 42.4933 105.378 42.1312 105.071 41.8527C104.792 41.602 104.429 41.4627 103.982 41.4627Z" fill="#606060"/>
<path d="M108.421 44.9164V40.9614H109.761C110.292 40.9614 110.738 41.0449 111.045 41.212C111.353 41.3791 111.604 41.602 111.799 41.9362C111.995 42.2426 112.079 42.6046 112.079 42.9667C112.079 43.2453 112.023 43.4959 111.911 43.7187C111.799 43.9694 111.66 44.1644 111.464 44.3593C111.269 44.5543 111.045 44.6936 110.794 44.7771C110.655 44.8328 110.515 44.8885 110.375 44.8885C110.264 44.9164 110.012 44.9164 109.649 44.9164H108.421ZM109.705 41.4627H109.007V44.4151H109.733C110.012 44.4151 110.236 44.3872 110.403 44.3593C110.571 44.3315 110.682 44.2758 110.794 44.2201C110.906 44.1644 110.99 44.0808 111.073 43.9973C111.353 43.7187 111.492 43.3567 111.492 42.911C111.492 42.4932 111.353 42.1312 111.073 41.8805C110.962 41.7691 110.85 41.6855 110.71 41.6298C110.571 41.5741 110.431 41.5184 110.32 41.4906C110.18 41.4906 109.984 41.4627 109.705 41.4627Z" fill="#606060"/>
<path d="M112.805 40.9614H115.066V41.4627H113.391V42.6604H115.01V43.1617H113.391V44.3872H115.122V44.8885H112.805V40.9614Z" fill="#606060"/>
<path d="M117.328 40.9614H119.45V41.4627H117.887V42.5768H119.45V43.0781H117.887V44.9164H117.328V40.9614Z" fill="#606060"/>
<path d="M120.064 40.9614H122.326V41.4627H120.651V42.6604H122.27V43.1617H120.651V44.3872H122.382V44.8885H120.064V40.9614Z" fill="#606060"/>
<path d="M122.996 44.9443V40.9893H124.001C124.392 40.9893 124.727 41.1007 124.951 41.2956C125.174 41.4906 125.314 41.7691 125.314 42.1034C125.314 42.3262 125.258 42.5211 125.146 42.7161C125.034 42.8832 124.867 43.0225 124.643 43.106C124.783 43.1896 124.895 43.301 125.006 43.4403C125.118 43.5795 125.286 43.8302 125.509 44.1923C125.649 44.4151 125.76 44.5822 125.844 44.6936L126.067 44.9721H125.397L125.23 44.7215C125.23 44.7215 125.202 44.6936 125.202 44.6658L125.09 44.4986L124.923 44.2201L124.727 43.9138C124.615 43.7466 124.504 43.6352 124.392 43.5238C124.308 43.4403 124.197 43.3567 124.141 43.3289C124.057 43.2731 123.917 43.2731 123.75 43.2731H123.61V45H122.996V44.9443ZM123.722 41.4627H123.555V42.7161H123.778C124.057 42.7161 124.253 42.6882 124.364 42.6325C124.476 42.5768 124.56 42.5211 124.615 42.4097C124.671 42.2983 124.699 42.1869 124.699 42.0755C124.699 41.9641 124.671 41.8248 124.588 41.7413C124.532 41.6299 124.42 41.5742 124.308 41.5185C124.225 41.4627 124.001 41.4627 123.722 41.4627Z" fill="#606060"/>
<path d="M126.514 44.9443V40.9893H127.519C127.91 40.9893 128.245 41.1007 128.468 41.2956C128.691 41.4906 128.831 41.7691 128.831 42.1034C128.831 42.3262 128.775 42.5211 128.664 42.7161C128.552 42.8832 128.384 43.0225 128.161 43.106C128.301 43.1896 128.412 43.301 128.524 43.4403C128.636 43.5795 128.803 43.8302 129.027 44.1923C129.166 44.4151 129.278 44.5822 129.362 44.6936L129.585 44.9721H128.915L128.747 44.7215C128.747 44.7215 128.719 44.6936 128.719 44.6658L128.608 44.4986L128.44 44.2201L128.245 43.9138C128.133 43.7466 128.021 43.6352 127.91 43.5238C127.826 43.4403 127.714 43.3567 127.658 43.3289C127.575 43.2731 127.435 43.2731 127.268 43.2731H127.128V45H126.514V44.9443ZM127.24 41.4627H127.072V42.7161H127.295C127.575 42.7161 127.77 42.6882 127.882 42.6325C127.993 42.5768 128.077 42.5211 128.133 42.4097C128.189 42.2983 128.217 42.1869 128.217 42.0755C128.217 41.9641 128.189 41.8248 128.105 41.7413C128.049 41.6299 127.938 41.5742 127.826 41.5185C127.742 41.4627 127.519 41.4627 127.24 41.4627Z" fill="#606060"/>
<path d="M131.624 40.9057C132.238 40.9057 132.741 41.1007 133.16 41.4906C133.578 41.8805 133.774 42.354 133.774 42.9389C133.774 43.5238 133.578 43.9973 133.16 44.3872C132.741 44.7772 132.238 44.9721 131.596 44.9721C131.01 44.9721 130.507 44.7772 130.088 44.3872C129.697 43.9973 129.502 43.5238 129.502 42.9389C129.502 42.354 129.697 41.8527 130.116 41.4627C130.507 41.1007 131.01 40.9057 131.624 40.9057ZM131.652 41.4627C131.205 41.4627 130.814 41.602 130.535 41.8805C130.256 42.1591 130.088 42.5211 130.088 42.9668C130.088 43.3846 130.228 43.7466 130.535 44.0252C130.842 44.3037 131.205 44.4429 131.652 44.4429C132.099 44.4429 132.462 44.3037 132.769 43.9973C133.076 43.6909 133.215 43.3567 133.215 42.9111C133.215 42.4933 133.076 42.1312 132.769 41.8527C132.462 41.5742 132.071 41.4627 131.652 41.4627Z" fill="#606060"/>
<path d="M135.449 43.2731L135.03 43.0225C134.751 42.8554 134.556 42.6883 134.444 42.5211C134.332 42.354 134.276 42.1869 134.276 41.9641C134.276 41.6577 134.388 41.407 134.611 41.2121C134.835 41.0171 135.114 40.9057 135.449 40.9057C135.784 40.9057 136.091 40.9893 136.37 41.1842V41.8248C136.091 41.5463 135.784 41.407 135.449 41.407C135.254 41.407 135.114 41.4628 135.002 41.5463C134.891 41.6299 134.835 41.7413 134.835 41.8805C134.835 41.9919 134.891 42.1034 134.974 42.2148C135.058 42.3262 135.198 42.4376 135.393 42.549L135.84 42.7997C136.315 43.0782 136.566 43.4681 136.566 43.9138C136.566 44.2201 136.454 44.4986 136.259 44.6936C136.035 44.8886 135.756 45 135.421 45C135.03 45 134.667 44.8886 134.36 44.6379V43.9138C134.667 44.3037 135.03 44.4986 135.421 44.4986C135.589 44.4986 135.756 44.4429 135.868 44.3594C135.98 44.248 136.035 44.1366 136.035 43.9973C135.98 43.7188 135.784 43.496 135.449 43.2731Z" fill="#606060"/>
<path d="M138.743 40.9614H141.005V41.4627H139.33V42.6604H140.949V43.1617H139.33V44.3872H141.061V44.8885H138.743V40.9614Z" fill="#606060"/>
<path d="M143.295 40.9614H145.417V41.4627H143.853V42.5768H145.417V43.0781H143.853V44.9164H143.295V40.9614Z" fill="#606060"/>
<path d="M146.003 40.9614H148.265V41.4627H146.589V42.6604H148.209V43.1617H146.589V44.3872H148.32V44.8885H146.003V40.9614Z" fill="#606060"/>
<path d="M148.935 44.9443V40.9893H149.94C150.331 40.9893 150.666 41.1007 150.889 41.2956C151.112 41.4906 151.252 41.7691 151.252 42.1034C151.252 42.3262 151.196 42.5211 151.084 42.7161C150.973 42.8832 150.805 43.0225 150.582 43.106C150.722 43.1896 150.833 43.301 150.945 43.4403C151.057 43.5795 151.224 43.8302 151.447 44.1923C151.587 44.4151 151.699 44.5822 151.783 44.6936L152.006 44.9721H151.336L151.168 44.7215C151.168 44.7215 151.14 44.6936 151.14 44.6658L151.029 44.4986L150.861 44.2201L150.666 43.9138C150.554 43.7466 150.442 43.6352 150.331 43.5238C150.219 43.4124 150.135 43.3567 150.079 43.3289C149.996 43.2731 149.856 43.2731 149.688 43.2731H149.549V45H148.935V44.9443ZM149.688 41.4627H149.521V42.7161H149.744C150.023 42.7161 150.219 42.6882 150.331 42.6325C150.442 42.5768 150.526 42.5211 150.582 42.4097C150.638 42.2983 150.666 42.1869 150.666 42.0755C150.666 41.9641 150.638 41.8248 150.554 41.7413C150.47 41.6577 150.386 41.5742 150.275 41.5185C150.163 41.4627 149.968 41.4627 149.688 41.4627Z" fill="#606060"/>
<path d="M152.453 44.9443V40.9893H153.458C153.849 40.9893 154.184 41.1007 154.408 41.2956C154.631 41.4906 154.771 41.7691 154.771 42.1034C154.771 42.3262 154.715 42.5211 154.603 42.7161C154.491 42.8832 154.324 43.0225 154.1 43.106C154.24 43.1896 154.352 43.301 154.463 43.4403C154.575 43.5795 154.743 43.8302 154.966 44.1923C155.106 44.4151 155.217 44.5822 155.301 44.6936L155.524 44.9721H154.854L154.687 44.7215C154.687 44.7215 154.659 44.6936 154.659 44.6658L154.547 44.4986L154.38 44.2201L154.184 43.9138C154.073 43.7466 153.961 43.6352 153.849 43.5238C153.738 43.4124 153.654 43.3567 153.598 43.3289C153.514 43.2731 153.375 43.2731 153.207 43.2731H153.067V45H152.453V44.9443ZM153.207 41.4627H153.039V42.7161H153.263C153.542 42.7161 153.738 42.6882 153.849 42.6325C153.961 42.5768 154.045 42.5211 154.1 42.4097C154.156 42.2983 154.184 42.1869 154.184 42.0755C154.184 41.9641 154.156 41.8248 154.073 41.7413C153.989 41.6577 153.905 41.5742 153.793 41.5185C153.682 41.4627 153.486 41.4627 153.207 41.4627Z" fill="#606060"/>
<path d="M157.227 40.9614H157.618L159.405 44.9443H158.819L158.288 43.7745H156.585L156.082 44.9443H155.496L157.227 40.9614ZM158.065 43.2453L157.423 41.7969L156.836 43.2453H158.065Z" fill="#606060"/>
<path d="M161.778 42.9946H163.118V44.6658C162.615 44.8886 162.141 44.9721 161.666 44.9721C160.996 44.9721 160.493 44.7772 160.075 44.3872C159.684 43.9973 159.488 43.5238 159.488 42.9668C159.488 42.3819 159.684 41.8805 160.103 41.4906C160.521 41.1007 161.024 40.9057 161.638 40.9057C161.862 40.9057 162.085 40.9336 162.28 40.9893C162.476 41.045 162.727 41.1285 163.034 41.2678V41.8527C162.56 41.5742 162.085 41.4349 161.61 41.4349C161.164 41.4349 160.801 41.5742 160.521 41.8805C160.242 42.1869 160.075 42.549 160.075 42.9668C160.075 43.4124 160.214 43.7745 160.521 44.0809C160.828 44.3594 161.191 44.4986 161.666 44.4986C161.889 44.4986 162.169 44.4429 162.476 44.3315L162.532 44.3037V43.4681H161.778V42.9946Z" fill="#606060"/>
<path d="M163.929 40.9614H166.19V41.4627H164.515V42.6604H166.134V43.1617H164.515V44.3872H166.246V44.8885H163.929V40.9614Z" fill="#606060"/>
<path d="M170.014 40.9614H170.545V44.9164H170.042L167.39 41.8526V44.9164H166.859V40.9614H167.334L170.014 44.053V40.9614Z" fill="#606060"/>
<path d="M172.388 43.2731L171.969 43.0225C171.69 42.8554 171.494 42.6883 171.382 42.5211C171.271 42.354 171.215 42.1869 171.215 41.9641C171.215 41.6577 171.327 41.407 171.55 41.2121C171.773 41.0171 172.052 40.9057 172.388 40.9057C172.723 40.9057 173.03 40.9893 173.309 41.1842V41.8248C173.03 41.5463 172.723 41.407 172.388 41.407C172.192 41.407 172.052 41.4628 171.941 41.5463C171.829 41.6299 171.773 41.7413 171.773 41.8805C171.773 41.9919 171.829 42.1034 171.913 42.2148C171.997 42.3262 172.136 42.4376 172.332 42.549L172.778 42.7997C173.253 43.0782 173.504 43.4681 173.504 43.9138C173.504 44.2201 173.393 44.4986 173.197 44.6936C172.974 44.8886 172.695 45 172.36 45C171.969 45 171.606 44.8886 171.299 44.6379V43.9138C171.606 44.3037 171.969 44.4986 172.36 44.4986C172.527 44.4986 172.695 44.4429 172.806 44.3594C172.918 44.248 172.974 44.1366 172.974 43.9973C172.918 43.7188 172.723 43.496 172.388 43.2731Z" fill="#606060"/>
</svg>
