<svg width="309" height="190" viewBox="0 0 309 190" fill="none" xmlns="http://www.w3.org/2000/svg">
<path d="M172.95 92.9538V109.859H105.839V0.988525H127.532V92.9538H172.95Z" fill="#A3C35A"/>
<path d="M131.938 17.8939V0.988525H199.048V109.859H177.356V17.8939H131.938Z" fill="#A3C35A"/>
<path d="M131.734 23.4389H168.136V31.6211H140.953V51.1637H167.255V59.3459H140.953V79.2267H169.018V87.4089H131.734V23.4389Z" fill="#495928"/>
<path d="M0.632324 142.859H4.76739V167.811H17.7149V171.53H0.632324V142.859Z" fill="#A3C35A"/>
<path d="M37.7125 142.453C42.1865 142.453 45.847 143.873 48.8297 146.645C51.8124 149.418 53.2359 152.934 53.2359 157.194C53.2359 161.454 51.7446 164.903 48.7619 167.676C45.7792 170.448 42.0509 171.8 37.5091 171.8C33.1707 171.8 29.5779 170.448 26.663 167.676C23.7481 164.903 22.3246 161.454 22.3246 157.262C22.3246 153.002 23.7481 149.418 26.663 146.645C29.5779 143.805 33.2385 142.453 37.7125 142.453ZM37.848 146.307C34.5264 146.307 31.8827 147.321 29.7135 149.418C27.6121 151.446 26.5274 154.084 26.5274 157.262C26.5274 160.372 27.6121 162.942 29.7135 164.971C31.8149 166.999 34.5264 168.081 37.7125 168.081C40.8985 168.081 43.61 167.067 45.7115 164.971C47.8807 162.874 48.8975 160.305 48.8975 157.127C48.8975 154.084 47.8129 151.514 45.7115 149.485C43.61 147.389 40.9663 146.307 37.848 146.307Z" fill="#A3C35A"/>
<path d="M60.6249 142.859H64.76V171.124C64.76 173.762 64.4888 175.723 63.9465 177.007C63.4042 178.292 62.523 179.306 61.3028 180.05C60.0826 180.794 58.659 181.2 56.9643 181.2C56.6932 181.2 56.2865 181.132 55.6086 181.065L54.8629 177.278H55.8797C57.0321 177.278 57.9812 177.143 58.5913 176.872C59.2013 176.602 59.6759 176.061 60.0826 175.384C60.4215 174.641 60.6249 173.153 60.6249 170.786V142.859Z" fill="#A3C35A"/>
<path d="M82.6558 142.656H85.5707L98.4504 171.462H94.1798L90.3159 162.942H78.0462L74.4535 171.462H70.2506L82.6558 142.656ZM88.6889 159.358L84.0794 148.944L79.8087 159.358H88.6889Z" fill="#A3C35A"/>
<path d="M110.991 159.493L107.873 157.6C105.907 156.383 104.483 155.233 103.67 154.084C102.857 152.934 102.45 151.582 102.45 150.094C102.45 147.862 103.263 146.037 104.822 144.617C106.382 143.196 108.415 142.52 110.923 142.52C113.296 142.52 115.533 143.196 117.499 144.549V149.215C115.397 147.254 113.228 146.239 110.788 146.239C109.432 146.239 108.347 146.578 107.466 147.186C106.585 147.795 106.178 148.606 106.178 149.553C106.178 150.432 106.517 151.243 107.127 151.987C107.737 152.731 108.754 153.543 110.178 154.354L113.296 156.18C116.821 158.276 118.583 160.913 118.583 164.159C118.583 166.458 117.838 168.352 116.279 169.772C114.719 171.192 112.754 171.936 110.245 171.936C107.398 171.936 104.822 171.057 102.518 169.298V164.092C104.755 166.932 107.331 168.284 110.245 168.284C111.533 168.284 112.618 167.946 113.431 167.202C114.313 166.458 114.719 165.579 114.719 164.497C114.787 162.739 113.499 161.049 110.991 159.493Z" fill="#A3C35A"/>
<path d="M138.242 142.859H154.511V146.51H142.309V155.233H154.104V158.885H142.309V167.811H154.85V171.462H138.242V142.859Z" fill="#495928"/>
<path d="M185.965 142.859H189.829V171.53H185.694V149.215L176.881 160.305H176.136L167.188 149.215V171.53H163.052V142.859H166.916L176.475 154.625L185.965 142.859Z" fill="#495928"/>
<path d="M213.893 142.453C218.367 142.453 222.028 143.873 225.011 146.645C227.993 149.418 229.417 152.934 229.417 157.194C229.417 161.454 227.925 164.903 224.943 167.676C221.96 170.448 218.232 171.8 213.69 171.8C209.352 171.8 205.759 170.448 202.844 167.676C199.929 164.903 198.505 161.454 198.505 157.262C198.505 153.002 199.929 149.418 202.844 146.645C205.759 143.805 209.419 142.453 213.893 142.453ZM214.029 146.307C210.707 146.307 208.064 147.321 205.894 149.418C203.725 151.514 202.708 154.084 202.708 157.262C202.708 160.372 203.793 162.942 205.894 164.971C207.996 166.999 210.707 168.081 213.893 168.081C217.079 168.081 219.791 167.067 221.892 164.971C223.994 162.874 225.078 160.305 225.078 157.127C225.078 154.084 223.994 151.514 221.892 149.485C219.791 147.389 217.147 146.307 214.029 146.307Z" fill="#495928"/>
<path d="M238.297 142.859H253.617V146.51H242.432V154.489H253.617V158.141H242.432V171.53H238.297V142.859Z" fill="#495928"/>
<path d="M261.819 142.859H278.089V146.51H265.887V155.233H277.682V158.885H265.887V167.811H278.428V171.462H261.752V142.859H261.819Z" fill="#495928"/>
<path d="M286.833 171.53V142.859H294.019C296.934 142.859 299.238 143.602 300.933 145.022C302.628 146.442 303.509 148.403 303.509 150.838C303.509 152.528 303.102 153.948 302.221 155.166C301.34 156.383 300.187 157.262 298.628 157.87C299.577 158.479 300.459 159.291 301.34 160.305C302.221 161.319 303.441 163.145 305.068 165.715C306.085 167.337 306.898 168.555 307.509 169.366L309 171.395H304.119L302.899 169.501C302.831 169.434 302.763 169.298 302.628 169.163L301.814 168.014L300.526 165.917L299.171 163.686C298.289 162.536 297.544 161.59 296.866 160.846C296.188 160.17 295.51 159.629 294.968 159.358C294.425 159.02 293.409 158.885 292.121 158.885H291.036V171.395H286.833V171.53ZM292.188 146.307H290.968V155.368H292.527C294.629 155.368 296.052 155.166 296.798 154.828C297.544 154.489 298.154 153.948 298.628 153.205C299.103 152.461 299.306 151.649 299.306 150.77C299.306 149.891 299.035 149.08 298.561 148.336C298.086 147.592 297.408 147.119 296.527 146.781C295.646 146.442 294.154 146.307 292.188 146.307Z" fill="#495928"/>
<path d="M78.5209 186.677V188.165C77.504 188.706 76.3516 188.976 74.9959 188.976C73.9113 188.976 73.03 188.773 72.2844 188.3C71.5387 187.894 70.9286 187.286 70.5219 186.542C70.1151 185.798 69.844 184.986 69.844 184.107C69.844 182.687 70.3185 181.538 71.3353 180.591C72.3522 179.644 73.5723 179.171 75.0637 179.171C76.0805 179.171 77.2329 179.442 78.4531 179.982V181.47C77.3007 180.794 76.2161 180.523 75.1315 180.523C74.0469 180.523 73.0978 180.862 72.3522 181.538C71.6065 182.214 71.2675 183.093 71.2675 184.175C71.2675 185.257 71.6065 186.068 72.3522 186.812C73.0978 187.488 73.9791 187.827 75.1315 187.827C76.2839 187.759 77.4363 187.353 78.5209 186.677Z" fill="#606060"/>
<path d="M84.9608 179.103C86.4522 179.103 87.6724 179.577 88.6892 180.524C89.706 181.47 90.1805 182.62 90.1805 184.04C90.1805 185.46 89.706 186.609 88.6892 187.556C87.6724 188.503 86.4522 188.976 84.8931 188.976C83.4695 188.976 82.2493 188.503 81.2325 187.556C80.2835 186.609 79.809 185.46 79.809 184.04C79.809 182.62 80.2835 181.403 81.3003 180.456C82.2493 179.577 83.4695 179.103 84.9608 179.103ZM85.0286 180.456C83.944 180.456 82.995 180.794 82.3171 181.47C81.6392 182.146 81.2325 183.025 81.2325 184.107C81.2325 185.122 81.5714 186.001 82.3171 186.677C83.0628 187.353 83.944 187.691 84.9608 187.691C86.0455 187.691 86.9267 187.353 87.6724 186.609C88.418 185.933 88.757 185.054 88.757 183.972C88.757 182.958 88.418 182.079 87.6724 181.403C86.9945 180.794 86.0454 180.456 85.0286 180.456Z" fill="#606060"/>
<path d="M99.5352 179.239H100.823V188.841H99.4674V181.335L96.4847 185.054H96.2136L93.2309 181.335V188.841H91.8751V179.239H93.1631L96.3491 183.161L99.5352 179.239Z" fill="#606060"/>
<path d="M102.925 179.239H108.416V180.456H104.348V183.364H108.28V184.581H104.348V187.556H108.551V188.773H102.925V179.239ZM106.924 176.466L105.365 178.562H104.619L105.568 176.466H106.924Z" fill="#606060"/>
<path d="M110.042 188.909V179.306H112.483C113.432 179.306 114.245 179.577 114.788 180.05C115.33 180.524 115.669 181.2 115.669 182.011C115.669 182.552 115.533 183.026 115.262 183.499C114.991 183.905 114.584 184.243 114.042 184.446C114.381 184.648 114.652 184.919 114.923 185.257C115.194 185.595 115.601 186.204 116.143 187.083C116.482 187.624 116.753 188.03 116.957 188.3L117.499 188.976H115.872L115.465 188.368C115.465 188.368 115.398 188.3 115.398 188.232L115.126 187.827L114.72 187.15L114.245 186.407C113.974 186.001 113.703 185.73 113.432 185.46C113.161 185.257 112.957 185.054 112.822 184.987C112.686 184.919 112.279 184.851 111.873 184.851H111.534V189.044H110.042V188.909ZM111.873 180.456H111.466V183.499H112.008C112.686 183.499 113.161 183.431 113.432 183.296C113.703 183.161 113.906 183.026 114.042 182.755C114.177 182.485 114.245 182.214 114.245 181.944C114.245 181.673 114.177 181.335 113.974 181.132C113.771 180.929 113.567 180.726 113.296 180.591C113.025 180.456 112.551 180.456 111.873 180.456Z" fill="#606060"/>
<path d="M126.854 186.677V188.165C125.837 188.706 124.685 188.976 123.329 188.976C122.244 188.976 121.363 188.773 120.617 188.3C119.872 187.894 119.262 187.286 118.855 186.542C118.448 185.798 118.177 184.986 118.177 184.107C118.177 182.687 118.652 181.538 119.668 180.591C120.685 179.644 121.905 179.171 123.397 179.171C124.414 179.171 125.566 179.442 126.786 179.982V181.47C125.634 180.794 124.549 180.523 123.464 180.523C122.38 180.523 121.431 180.862 120.685 181.538C119.939 182.214 119.601 183.093 119.601 184.175C119.601 185.257 119.939 186.068 120.685 186.812C121.431 187.488 122.312 187.827 123.464 187.827C124.617 187.759 125.769 187.353 126.854 186.677Z" fill="#606060"/>
<path d="M128.548 179.239H129.904V188.841H128.548V179.239Z" fill="#606060"/>
<path d="M136.819 179.103C138.31 179.103 139.53 179.577 140.547 180.524C141.564 181.47 142.038 182.62 142.038 184.04C142.038 185.46 141.564 186.609 140.547 187.556C139.53 188.503 138.31 188.976 136.751 188.976C135.327 188.976 134.107 188.503 133.09 187.556C132.141 186.609 131.667 185.46 131.667 184.04C131.667 182.62 132.141 181.403 133.158 180.456C134.107 179.577 135.327 179.103 136.819 179.103ZM136.886 180.456C135.802 180.456 134.853 180.794 134.175 181.47C133.497 182.146 133.09 183.025 133.09 184.107C133.09 185.122 133.429 186.001 134.175 186.677C134.921 187.353 135.802 187.691 136.819 187.691C137.903 187.691 138.784 187.353 139.53 186.609C140.276 185.933 140.615 185.054 140.615 183.972C140.615 182.958 140.276 182.079 139.53 181.403C138.852 180.794 137.971 180.456 136.886 180.456Z" fill="#606060"/>
<path d="M147.665 188.841V179.239H150.918C152.206 179.239 153.291 179.442 154.037 179.847C154.782 180.253 155.392 180.794 155.867 181.605C156.341 182.349 156.545 183.228 156.545 184.107C156.545 184.784 156.409 185.392 156.138 185.933C155.867 186.542 155.528 187.015 155.053 187.488C154.579 187.962 154.037 188.3 153.427 188.503C153.088 188.638 152.749 188.773 152.41 188.773C152.139 188.841 151.528 188.841 150.647 188.841H147.665ZM150.783 180.456H149.088V187.624H150.851C151.528 187.624 152.071 187.556 152.478 187.488C152.884 187.421 153.155 187.286 153.427 187.15C153.698 187.015 153.901 186.812 154.104 186.609C154.782 185.933 155.121 185.054 155.121 183.972C155.121 182.958 154.782 182.079 154.104 181.47C153.833 181.2 153.562 180.997 153.223 180.862C152.884 180.726 152.545 180.591 152.274 180.523C151.935 180.523 151.461 180.456 150.783 180.456Z" fill="#606060"/>
<path d="M158.307 179.239H163.798V180.456H159.731V183.364H163.663V184.581H159.731V187.556H163.934V188.773H158.307V179.239Z" fill="#606060"/>
<path d="M169.289 179.239H174.441V180.456H170.645V183.161H174.441V184.378H170.645V188.841H169.289V179.239Z" fill="#606060"/>
<path d="M175.932 179.239H181.423V180.456H177.356V183.364H181.287V184.581H177.356V187.556H181.559V188.773H175.932V179.239Z" fill="#606060"/>
<path d="M183.05 188.909V179.306H185.49C186.439 179.306 187.253 179.577 187.795 180.05C188.337 180.524 188.676 181.2 188.676 182.011C188.676 182.552 188.541 183.026 188.27 183.499C187.998 183.905 187.592 184.243 187.049 184.446C187.388 184.648 187.659 184.919 187.931 185.257C188.202 185.595 188.609 186.204 189.151 187.083C189.49 187.624 189.761 188.03 189.964 188.3L190.507 188.976H188.88L188.473 188.368C188.473 188.368 188.405 188.3 188.405 188.232L188.134 187.827L187.727 187.15L187.253 186.407C186.982 186.001 186.71 185.73 186.439 185.46C186.236 185.257 185.965 185.054 185.829 184.987C185.626 184.851 185.287 184.851 184.88 184.851H184.541V189.044H183.05V188.909ZM184.812 180.456H184.406V183.499H184.948C185.626 183.499 186.1 183.431 186.372 183.296C186.643 183.161 186.846 183.026 186.982 182.755C187.117 182.485 187.185 182.214 187.185 181.944C187.185 181.673 187.117 181.335 186.914 181.132C186.778 180.862 186.507 180.726 186.236 180.591C186.033 180.456 185.49 180.456 184.812 180.456Z" fill="#606060"/>
<path d="M191.591 188.909V179.306H194.032C194.981 179.306 195.794 179.577 196.337 180.05C196.879 180.524 197.218 181.2 197.218 182.011C197.218 182.552 197.082 183.026 196.811 183.499C196.54 183.905 196.133 184.243 195.591 184.446C195.93 184.648 196.201 184.919 196.472 185.257C196.743 185.595 197.15 186.204 197.692 187.083C198.031 187.624 198.302 188.03 198.506 188.3L199.048 188.976H197.421L197.014 188.368C197.014 188.368 196.947 188.3 196.947 188.232L196.676 187.827L196.269 187.15L195.794 186.407C195.523 186.001 195.252 185.73 194.981 185.46C194.777 185.257 194.506 185.054 194.371 184.987C194.167 184.851 193.828 184.851 193.422 184.851H193.083V189.044H191.591V188.909ZM193.354 180.456H192.947V183.499H193.489C194.167 183.499 194.642 183.431 194.913 183.296C195.184 183.161 195.388 183.026 195.523 182.755C195.659 182.485 195.726 182.214 195.726 181.944C195.726 181.673 195.659 181.335 195.455 181.132C195.32 180.862 195.049 180.726 194.777 180.591C194.574 180.456 194.032 180.456 193.354 180.456Z" fill="#606060"/>
<path d="M203.997 179.103C205.488 179.103 206.708 179.577 207.725 180.524C208.742 181.47 209.216 182.62 209.216 184.04C209.216 185.46 208.742 186.609 207.725 187.556C206.708 188.503 205.488 188.976 203.929 188.976C202.505 188.976 201.285 188.503 200.268 187.556C199.319 186.609 198.845 185.46 198.845 184.04C198.845 182.62 199.319 181.403 200.336 180.456C201.285 179.577 202.505 179.103 203.997 179.103ZM204.064 180.456C202.98 180.456 202.031 180.794 201.353 181.47C200.675 182.146 200.268 183.025 200.268 184.107C200.268 185.122 200.607 186.001 201.353 186.677C202.098 187.353 202.98 187.691 204.064 187.691C205.149 187.691 206.03 187.353 206.776 186.609C207.521 185.866 207.86 185.054 207.86 183.972C207.86 182.958 207.521 182.079 206.776 181.403C206.03 180.726 205.081 180.456 204.064 180.456Z" fill="#606060"/>
<path d="M213.283 184.851L212.267 184.243C211.589 183.837 211.114 183.431 210.843 183.026C210.572 182.62 210.436 182.214 210.436 181.673C210.436 180.929 210.707 180.321 211.25 179.847C211.792 179.374 212.47 179.103 213.283 179.103C214.097 179.103 214.842 179.306 215.52 179.78V181.335C214.842 180.659 214.097 180.321 213.283 180.321C212.809 180.321 212.47 180.456 212.199 180.659C211.928 180.862 211.792 181.132 211.792 181.47C211.792 181.741 211.928 182.011 212.131 182.282C212.334 182.552 212.673 182.823 213.148 183.093L214.232 183.702C215.385 184.378 215.995 185.325 215.995 186.407C215.995 187.15 215.724 187.827 215.249 188.3C214.707 188.773 214.029 189.044 213.216 189.044C212.267 189.044 211.385 188.773 210.64 188.165V186.407C211.385 187.353 212.267 187.827 213.216 187.827C213.622 187.827 214.029 187.691 214.3 187.489C214.571 187.218 214.707 186.948 214.707 186.609C214.571 185.933 214.097 185.392 213.283 184.851Z" fill="#606060"/>
<path d="M221.282 179.239H226.773V180.456H222.706V183.364H226.638V184.581H222.706V187.556H226.909V188.773H221.282V179.239Z" fill="#606060"/>
<path d="M232.332 179.239H237.484V180.456H233.688V183.161H237.484V184.378H233.688V188.841H232.332V179.239Z" fill="#606060"/>
<path d="M238.907 179.239H244.398V180.456H240.331V183.364H244.263V184.581H240.331V187.556H244.534V188.773H238.907V179.239Z" fill="#606060"/>
<path d="M246.025 188.909V179.306H248.466C249.415 179.306 250.228 179.577 250.77 180.05C251.313 180.524 251.652 181.2 251.652 182.011C251.652 182.552 251.516 183.026 251.245 183.499C250.974 183.905 250.567 184.243 250.025 184.446C250.364 184.648 250.635 184.919 250.906 185.257C251.177 185.595 251.584 186.204 252.126 187.083C252.465 187.624 252.736 188.03 252.94 188.3L253.482 188.976H251.855L251.448 188.368C251.448 188.368 251.38 188.3 251.38 188.232L251.109 187.827L250.703 187.15L250.228 186.407C249.957 186.001 249.686 185.73 249.415 185.46C249.143 185.189 248.94 185.054 248.804 184.987C248.601 184.851 248.262 184.851 247.855 184.851H247.516V189.044H246.025V188.909ZM247.855 180.456H247.449V183.499H247.991C248.669 183.499 249.143 183.431 249.415 183.296C249.686 183.161 249.889 183.026 250.025 182.755C250.16 182.485 250.228 182.214 250.228 181.944C250.228 181.673 250.16 181.335 249.957 181.132C249.753 180.929 249.55 180.726 249.279 180.591C249.008 180.456 248.533 180.456 247.855 180.456Z" fill="#606060"/>
<path d="M254.566 188.909V179.306H257.007C257.956 179.306 258.769 179.577 259.312 180.05C259.854 180.524 260.193 181.2 260.193 182.011C260.193 182.552 260.057 183.026 259.786 183.499C259.515 183.905 259.108 184.243 258.566 184.446C258.905 184.648 259.176 184.919 259.447 185.257C259.718 185.595 260.125 186.204 260.667 187.083C261.006 187.624 261.277 188.03 261.481 188.3L262.023 188.976H260.396L259.989 188.368C259.989 188.368 259.922 188.3 259.922 188.232L259.65 187.827L259.244 187.15L258.769 186.407C258.498 186.001 258.227 185.73 257.956 185.46C257.685 185.189 257.481 185.054 257.346 184.987C257.142 184.851 256.803 184.851 256.397 184.851H256.058V189.044H254.566V188.909ZM256.397 180.456H255.99V183.499H256.532C257.21 183.499 257.685 183.431 257.956 183.296C258.227 183.161 258.43 183.026 258.566 182.755C258.701 182.485 258.769 182.214 258.769 181.944C258.769 181.673 258.701 181.335 258.498 181.132C258.295 180.929 258.091 180.726 257.82 180.591C257.549 180.456 257.074 180.456 256.397 180.456Z" fill="#606060"/>
<path d="M266.158 179.239H267.107L271.446 188.909H270.022L268.734 186.068H264.599L263.379 188.909H261.955L266.158 179.239ZM268.192 184.784L266.633 181.267L265.209 184.784H268.192Z" fill="#606060"/>
<path d="M277.207 184.175H280.461V188.232C279.241 188.773 278.089 188.976 276.936 188.976C275.309 188.976 274.089 188.503 273.072 187.556C272.123 186.609 271.649 185.46 271.649 184.107C271.649 182.687 272.123 181.47 273.14 180.524C274.157 179.577 275.377 179.103 276.869 179.103C277.411 179.103 277.953 179.171 278.428 179.306C278.902 179.442 279.512 179.644 280.258 179.983V181.403C279.106 180.726 277.953 180.388 276.801 180.388C275.716 180.388 274.835 180.726 274.157 181.47C273.479 182.214 273.072 183.093 273.072 184.107C273.072 185.189 273.411 186.068 274.157 186.812C274.903 187.489 275.784 187.827 276.936 187.827C277.479 187.827 278.156 187.691 278.902 187.421L279.038 187.353V185.325H277.207V184.175Z" fill="#606060"/>
<path d="M282.427 179.239H287.918V180.456H283.851V183.364H287.783V184.581H283.851V187.556H288.054V188.773H282.427V179.239Z" fill="#606060"/>
<path d="M297.205 179.239H298.493V188.841H297.273L290.833 181.403V188.841H289.545V179.239H290.697L297.205 186.745V179.239Z" fill="#606060"/>
<path d="M302.967 184.851L301.95 184.243C301.273 183.837 300.798 183.431 300.527 183.026C300.256 182.62 300.12 182.214 300.12 181.673C300.12 180.929 300.391 180.321 300.934 179.847C301.476 179.374 302.154 179.103 302.967 179.103C303.781 179.103 304.526 179.306 305.204 179.78V181.335C304.526 180.659 303.781 180.321 302.967 180.321C302.493 180.321 302.154 180.456 301.883 180.659C301.611 180.862 301.476 181.132 301.476 181.47C301.476 181.741 301.611 182.011 301.815 182.282C302.018 182.552 302.357 182.823 302.832 183.093L303.916 183.702C305.069 184.378 305.679 185.325 305.679 186.407C305.679 187.15 305.408 187.827 304.933 188.3C304.391 188.773 303.713 189.044 302.899 189.044C301.95 189.044 301.069 188.773 300.323 188.165V186.407C301.069 187.353 301.95 187.827 302.899 187.827C303.306 187.827 303.713 187.691 303.984 187.489C304.255 187.218 304.391 186.948 304.391 186.609C304.255 185.933 303.781 185.392 302.967 184.851Z" fill="#606060"/>
</svg>
