<svg width="511" height="285" viewBox="0 0 511 285" fill="none" xmlns="http://www.w3.org/2000/svg">
<path d="M152.168 118.43H173.115V148.01H152.168V188H115.479V148.01H39.6875L38.0371 124.904L115.098 3.15625H152.168V118.43ZM74.5996 118.43H115.479V53.1758L113.066 57.3652L74.5996 118.43ZM317.334 111.574C317.334 137.134 312.044 156.685 301.465 170.227C290.885 183.768 275.397 190.539 255 190.539C234.857 190.539 219.453 183.895 208.789 170.607C198.125 157.32 192.666 138.277 192.412 113.479V79.4551C192.412 53.6413 197.744 34.0482 208.408 20.6758C219.157 7.30339 234.603 0.617188 254.746 0.617188C274.889 0.617188 290.293 7.26107 300.957 20.5488C311.621 33.752 317.08 52.7526 317.334 77.5508V111.574ZM280.645 74.25C280.645 58.931 278.529 47.8014 274.297 40.8613C270.15 33.8366 263.633 30.3242 254.746 30.3242C246.113 30.3242 239.723 33.6673 235.576 40.3535C231.514 46.9551 229.355 57.3229 229.102 71.457V116.398C229.102 131.464 231.133 142.678 235.195 150.041C239.342 157.32 245.944 160.959 255 160.959C263.971 160.959 270.446 157.447 274.424 150.422C278.402 143.397 280.475 132.648 280.645 118.176V74.25ZM450.762 118.43H471.709V148.01H450.762V188H414.072V148.01H338.281L336.631 124.904L413.691 3.15625H450.762V118.43ZM373.193 118.43H414.072V53.1758L411.66 57.3652L373.193 118.43Z" fill="#4B4B4B"/>
<rect width="511" height="55" transform="translate(0 230)" fill="#A3C35A"/>
<path d="M29.9244 269.192C27.7057 269.192 25.6897 268.701 23.8764 267.72C22.0844 266.717 20.6764 265.352 19.6524 263.624C18.6497 261.896 18.1484 259.955 18.1484 257.8C18.1484 255.645 18.6497 253.704 19.6524 251.976C20.6764 250.248 22.0844 248.893 23.8764 247.912C25.6897 246.909 27.7057 246.408 29.9244 246.408C32.143 246.408 34.1377 246.899 35.9084 247.88C37.7004 248.861 39.1084 250.227 40.1324 251.976C41.1564 253.704 41.6684 255.645 41.6684 257.8C41.6684 259.955 41.1564 261.907 40.1324 263.656C39.1084 265.384 37.7004 266.739 35.9084 267.72C34.1377 268.701 32.143 269.192 29.9244 269.192ZM29.9244 267.08C31.695 267.08 33.295 266.685 34.7244 265.896C36.1537 265.085 37.2737 263.976 38.0844 262.568C38.895 261.139 39.3004 259.549 39.3004 257.8C39.3004 256.051 38.895 254.472 38.0844 253.064C37.2737 251.635 36.1537 250.525 34.7244 249.736C33.295 248.925 31.695 248.52 29.9244 248.52C28.1537 248.52 26.543 248.925 25.0924 249.736C23.663 250.525 22.5324 251.635 21.7004 253.064C20.8897 254.472 20.4844 256.051 20.4844 257.8C20.4844 259.549 20.8897 261.139 21.7004 262.568C22.5324 263.976 23.663 265.085 25.0924 265.896C26.543 266.685 28.1537 267.08 29.9244 267.08ZM55.1681 252.04C56.7468 252.04 58.1761 252.403 59.4561 253.128C60.7361 253.832 61.7388 254.835 62.4641 256.136C63.1895 257.437 63.5521 258.92 63.5521 260.584C63.5521 262.269 63.1895 263.763 62.4641 265.064C61.7388 266.365 60.7361 267.379 59.4561 268.104C58.1975 268.808 56.7681 269.16 55.1681 269.16C53.8028 269.16 52.5655 268.883 51.4561 268.328C50.3681 267.752 49.4721 266.92 48.7681 265.832V275.208H46.4961V252.168H48.6721V255.496C49.3548 254.387 50.2508 253.533 51.3601 252.936C52.4908 252.339 53.7601 252.04 55.1681 252.04ZM55.0081 267.144C56.1815 267.144 57.2481 266.877 58.2081 266.344C59.1681 265.789 59.9148 265.011 60.4481 264.008C61.0028 263.005 61.2801 261.864 61.2801 260.584C61.2801 259.304 61.0028 258.173 60.4481 257.192C59.9148 256.189 59.1681 255.411 58.2081 254.856C57.2481 254.301 56.1815 254.024 55.0081 254.024C53.8135 254.024 52.7361 254.301 51.7761 254.856C50.8375 255.411 50.0908 256.189 49.5361 257.192C49.0028 258.173 48.7361 259.304 48.7361 260.584C48.7361 261.864 49.0028 263.005 49.5361 264.008C50.0908 265.011 50.8375 265.789 51.7761 266.344C52.7361 266.877 53.8135 267.144 55.0081 267.144ZM76.8556 252.04C78.4343 252.04 79.8636 252.403 81.1436 253.128C82.4236 253.832 83.4263 254.835 84.1516 256.136C84.877 257.437 85.2396 258.92 85.2396 260.584C85.2396 262.269 84.877 263.763 84.1516 265.064C83.4263 266.365 82.4236 267.379 81.1436 268.104C79.885 268.808 78.4556 269.16 76.8556 269.16C75.4903 269.16 74.253 268.883 73.1436 268.328C72.0556 267.752 71.1596 266.92 70.4556 265.832V275.208H68.1836V252.168H70.3596V255.496C71.0423 254.387 71.9383 253.533 73.0476 252.936C74.1783 252.339 75.4476 252.04 76.8556 252.04ZM76.6956 267.144C77.869 267.144 78.9356 266.877 79.8956 266.344C80.8556 265.789 81.6023 265.011 82.1356 264.008C82.6903 263.005 82.9676 261.864 82.9676 260.584C82.9676 259.304 82.6903 258.173 82.1356 257.192C81.6023 256.189 80.8556 255.411 79.8956 254.856C78.9356 254.301 77.869 254.024 76.6956 254.024C75.501 254.024 74.4236 254.301 73.4636 254.856C72.525 255.411 71.7783 256.189 71.2236 257.192C70.6903 258.173 70.4236 259.304 70.4236 260.584C70.4236 261.864 70.6903 263.005 71.2236 264.008C71.7783 265.011 72.525 265.789 73.4636 266.344C74.4236 266.877 75.501 267.144 76.6956 267.144ZM94.3831 269.16C93.0178 269.16 91.7058 268.968 90.4471 268.584C89.2098 268.179 88.2391 267.677 87.5351 267.08L88.5591 265.288C89.2631 265.843 90.1485 266.301 91.2151 266.664C92.2818 267.005 93.3911 267.176 94.5431 267.176C96.0791 267.176 97.2098 266.941 97.9351 266.472C98.6818 265.981 99.0551 265.299 99.0551 264.424C99.0551 263.805 98.8525 263.325 98.4471 262.984C98.0418 262.621 97.5298 262.355 96.9111 262.184C96.2925 261.992 95.4711 261.811 94.4471 261.64C93.0818 261.384 91.9831 261.128 91.1511 260.872C90.3191 260.595 89.6045 260.136 89.0071 259.496C88.4311 258.856 88.1431 257.971 88.1431 256.84C88.1431 255.432 88.7298 254.28 89.9031 253.384C91.0765 252.488 92.7085 252.04 94.7991 252.04C95.8871 252.04 96.9751 252.189 98.0631 252.488C99.1511 252.765 100.047 253.139 100.751 253.608L99.7591 255.432C98.3725 254.472 96.7191 253.992 94.7991 253.992C93.3485 253.992 92.2498 254.248 91.5031 254.76C90.7778 255.272 90.4151 255.944 90.4151 256.776C90.4151 257.416 90.6178 257.928 91.0231 258.312C91.4498 258.696 91.9725 258.984 92.5911 259.176C93.2098 259.347 94.0631 259.528 95.1511 259.72C96.4951 259.976 97.5725 260.232 98.3831 260.488C99.1938 260.744 99.8871 261.181 100.463 261.8C101.039 262.419 101.327 263.272 101.327 264.36C101.327 265.832 100.708 267.005 99.4711 267.88C98.2551 268.733 96.5591 269.16 94.3831 269.16ZM105.175 246.6H107.863L107.383 262.28H105.623L105.175 246.6ZM106.519 269.16C106.05 269.16 105.645 269 105.303 268.68C104.983 268.339 104.823 267.944 104.823 267.496C104.823 267.027 104.983 266.643 105.303 266.344C105.623 266.024 106.029 265.864 106.519 265.864C106.989 265.864 107.383 266.024 107.703 266.344C108.023 266.643 108.183 267.027 108.183 267.496C108.183 267.944 108.023 268.339 107.703 268.68C107.383 269 106.989 269.16 106.519 269.16ZM131.079 246.6C133.938 246.6 136.178 247.283 137.799 248.648C139.42 250.013 140.231 251.891 140.231 254.28C140.231 256.669 139.42 258.547 137.799 259.912C136.178 261.256 133.938 261.928 131.079 261.928H125.063V269H122.695V246.6H131.079ZM131.015 259.848C133.234 259.848 134.93 259.368 136.103 258.408C137.276 257.427 137.863 256.051 137.863 254.28C137.863 252.467 137.276 251.08 136.103 250.12C134.93 249.139 133.234 248.648 131.015 248.648H125.063V259.848H131.015ZM150.603 252.04C152.8 252.04 154.486 252.595 155.659 253.704C156.832 254.792 157.419 256.413 157.419 258.568V269H155.243V266.376C154.731 267.251 153.974 267.933 152.971 268.424C151.99 268.915 150.816 269.16 149.451 269.16C147.574 269.16 146.08 268.712 144.971 267.816C143.862 266.92 143.307 265.736 143.307 264.264C143.307 262.835 143.819 261.683 144.843 260.808C145.888 259.933 147.542 259.496 149.803 259.496H155.147V258.472C155.147 257.021 154.742 255.923 153.931 255.176C153.12 254.408 151.936 254.024 150.379 254.024C149.312 254.024 148.288 254.205 147.307 254.568C146.326 254.909 145.483 255.389 144.779 256.008L143.755 254.312C144.608 253.587 145.632 253.032 146.827 252.648C148.022 252.243 149.28 252.04 150.603 252.04ZM149.803 267.368C151.083 267.368 152.182 267.08 153.099 266.504C154.016 265.907 154.699 265.053 155.147 263.944V261.192H149.867C146.987 261.192 145.547 262.195 145.547 264.2C145.547 265.181 145.92 265.96 146.667 266.536C147.414 267.091 148.459 267.368 149.803 267.368ZM152.971 245.576H156.011L150.827 249.544H148.587L152.971 245.576ZM179.236 252.168V266.952C179.236 269.811 178.532 271.923 177.124 273.288C175.738 274.675 173.636 275.368 170.82 275.368C169.263 275.368 167.78 275.133 166.372 274.664C164.986 274.216 163.855 273.587 162.98 272.776L164.132 271.048C164.943 271.773 165.924 272.339 167.076 272.744C168.25 273.149 169.476 273.352 170.756 273.352C172.89 273.352 174.458 272.851 175.46 271.848C176.463 270.867 176.964 269.331 176.964 267.24V265.096C176.26 266.163 175.332 266.973 174.18 267.528C173.05 268.083 171.791 268.36 170.404 268.36C168.826 268.36 167.386 268.019 166.084 267.336C164.804 266.632 163.791 265.661 163.044 264.424C162.319 263.165 161.956 261.747 161.956 260.168C161.956 258.589 162.319 257.181 163.044 255.944C163.791 254.707 164.804 253.747 166.084 253.064C167.364 252.381 168.804 252.04 170.404 252.04C171.834 252.04 173.124 252.328 174.276 252.904C175.428 253.48 176.356 254.312 177.06 255.4V252.168H179.236ZM170.628 266.344C171.844 266.344 172.943 266.088 173.924 265.576C174.906 265.043 175.663 264.307 176.196 263.368C176.751 262.429 177.028 261.363 177.028 260.168C177.028 258.973 176.751 257.917 176.196 257C175.663 256.061 174.906 255.336 173.924 254.824C172.964 254.291 171.866 254.024 170.628 254.024C169.412 254.024 168.314 254.28 167.332 254.792C166.372 255.304 165.615 256.029 165.06 256.968C164.527 257.907 164.26 258.973 164.26 260.168C164.26 261.363 164.527 262.429 165.06 263.368C165.615 264.307 166.372 265.043 167.332 265.576C168.314 266.088 169.412 266.344 170.628 266.344ZM185.59 252.168H187.862V269H185.59V252.168ZM186.742 248.488C186.273 248.488 185.878 248.328 185.558 248.008C185.238 247.688 185.078 247.304 185.078 246.856C185.078 246.429 185.238 246.056 185.558 245.736C185.878 245.416 186.273 245.256 186.742 245.256C187.211 245.256 187.606 245.416 187.926 245.736C188.246 246.035 188.406 246.397 188.406 246.824C188.406 247.293 188.246 247.688 187.926 248.008C187.606 248.328 187.211 248.488 186.742 248.488ZM202.76 252.04C204.872 252.04 206.546 252.659 207.784 253.896C209.042 255.112 209.672 256.893 209.672 259.24V269H207.4V259.464C207.4 257.715 206.962 256.381 206.088 255.464C205.213 254.547 203.965 254.088 202.344 254.088C200.53 254.088 199.09 254.632 198.024 255.72C196.978 256.787 196.456 258.269 196.456 260.168V269H194.184V252.168H196.36V255.272C196.978 254.248 197.832 253.459 198.92 252.904C200.029 252.328 201.309 252.04 202.76 252.04ZM221.728 252.04C223.925 252.04 225.611 252.595 226.784 253.704C227.957 254.792 228.544 256.413 228.544 258.568V269H226.368V266.376C225.856 267.251 225.099 267.933 224.096 268.424C223.115 268.915 221.941 269.16 220.576 269.16C218.699 269.16 217.205 268.712 216.096 267.816C214.987 266.92 214.432 265.736 214.432 264.264C214.432 262.835 214.944 261.683 215.968 260.808C217.013 259.933 218.667 259.496 220.928 259.496H226.272V258.472C226.272 257.021 225.867 255.923 225.056 255.176C224.245 254.408 223.061 254.024 221.504 254.024C220.437 254.024 219.413 254.205 218.432 254.568C217.451 254.909 216.608 255.389 215.904 256.008L214.88 254.312C215.733 253.587 216.757 253.032 217.952 252.648C219.147 252.243 220.405 252.04 221.728 252.04ZM220.928 267.368C222.208 267.368 223.307 267.08 224.224 266.504C225.141 265.907 225.824 265.053 226.272 263.944V261.192H220.992C218.112 261.192 216.672 262.195 216.672 264.2C216.672 265.181 217.045 265.96 217.792 266.536C218.539 267.091 219.584 267.368 220.928 267.368ZM251.666 252.04C253.778 252.04 255.453 252.659 256.69 253.896C257.949 255.112 258.578 256.893 258.578 259.24V269H256.306V259.464C256.306 257.715 255.869 256.381 254.994 255.464C254.119 254.547 252.871 254.088 251.25 254.088C249.437 254.088 247.997 254.632 246.93 255.72C245.885 256.787 245.362 258.269 245.362 260.168V269H243.09V252.168H245.266V255.272C245.885 254.248 246.738 253.459 247.826 252.904C248.935 252.328 250.215 252.04 251.666 252.04ZM270.634 252.04C272.831 252.04 274.517 252.595 275.69 253.704C276.863 254.792 277.45 256.413 277.45 258.568V269H275.274V266.376C274.762 267.251 274.005 267.933 273.002 268.424C272.021 268.915 270.847 269.16 269.482 269.16C267.605 269.16 266.111 268.712 265.002 267.816C263.893 266.92 263.338 265.736 263.338 264.264C263.338 262.835 263.85 261.683 264.874 260.808C265.919 259.933 267.573 259.496 269.834 259.496H275.178V258.472C275.178 257.021 274.773 255.923 273.962 255.176C273.151 254.408 271.967 254.024 270.41 254.024C269.343 254.024 268.319 254.205 267.338 254.568C266.357 254.909 265.514 255.389 264.81 256.008L263.786 254.312C264.639 253.587 265.663 253.032 266.858 252.648C268.053 252.243 269.311 252.04 270.634 252.04ZM269.834 267.368C271.114 267.368 272.213 267.08 273.13 266.504C274.047 265.907 274.73 265.053 275.178 263.944V261.192H269.898C267.018 261.192 265.578 262.195 265.578 264.2C265.578 265.181 265.951 265.96 266.698 266.536C267.445 267.091 268.49 267.368 269.834 267.368ZM272.874 249.352C272.383 249.352 271.946 249.245 271.562 249.032C271.178 248.797 270.762 248.477 270.314 248.072C269.93 247.752 269.621 247.528 269.386 247.4C269.173 247.251 268.938 247.176 268.682 247.176C268.191 247.176 267.797 247.357 267.498 247.72C267.199 248.083 267.039 248.584 267.018 249.224H265.642C265.685 248.157 265.962 247.304 266.474 246.664C266.986 246.024 267.669 245.704 268.522 245.704C269.013 245.704 269.439 245.811 269.802 246.024C270.186 246.237 270.623 246.557 271.114 246.984C271.455 247.283 271.743 247.507 271.978 247.656C272.213 247.805 272.458 247.88 272.714 247.88C273.183 247.88 273.567 247.709 273.866 247.368C274.165 247.005 274.335 246.515 274.378 245.896H275.754C275.711 246.941 275.434 247.784 274.922 248.424C274.41 249.043 273.727 249.352 272.874 249.352ZM290.564 269.16C288.942 269.16 287.481 268.797 286.18 268.072C284.878 267.325 283.854 266.301 283.108 265C282.361 263.699 281.988 262.227 281.988 260.584C281.988 258.941 282.361 257.469 283.108 256.168C283.854 254.867 284.878 253.853 286.18 253.128C287.481 252.403 288.942 252.04 290.564 252.04C292.185 252.04 293.646 252.403 294.948 253.128C296.249 253.853 297.262 254.867 297.988 256.168C298.734 257.469 299.108 258.941 299.108 260.584C299.108 262.227 298.734 263.699 297.988 265C297.262 266.301 296.249 267.325 294.948 268.072C293.646 268.797 292.185 269.16 290.564 269.16ZM290.564 267.144C291.758 267.144 292.825 266.877 293.764 266.344C294.724 265.789 295.47 265.011 296.004 264.008C296.537 263.005 296.804 261.864 296.804 260.584C296.804 259.304 296.537 258.163 296.004 257.16C295.47 256.157 294.724 255.389 293.764 254.856C292.825 254.301 291.758 254.024 290.564 254.024C289.369 254.024 288.292 254.301 287.332 254.856C286.393 255.389 285.646 256.157 285.092 257.16C284.558 258.163 284.292 259.304 284.292 260.584C284.292 261.864 284.558 263.005 285.092 264.008C285.646 265.011 286.393 265.789 287.332 266.344C288.292 266.877 289.369 267.144 290.564 267.144ZM326.777 261.288H312.697C312.825 263.037 313.497 264.456 314.713 265.544C315.929 266.611 317.465 267.144 319.321 267.144C320.366 267.144 321.326 266.963 322.201 266.6C323.076 266.216 323.833 265.661 324.473 264.936L325.753 266.408C325.006 267.304 324.068 267.987 322.937 268.456C321.828 268.925 320.601 269.16 319.257 269.16C317.529 269.16 315.993 268.797 314.649 268.072C313.326 267.325 312.292 266.301 311.545 265C310.798 263.699 310.425 262.227 310.425 260.584C310.425 258.941 310.777 257.469 311.481 256.168C312.206 254.867 313.188 253.853 314.425 253.128C315.684 252.403 317.092 252.04 318.649 252.04C320.206 252.04 321.604 252.403 322.841 253.128C324.078 253.853 325.049 254.867 325.753 256.168C326.457 257.448 326.809 258.92 326.809 260.584L326.777 261.288ZM318.649 253.992C317.028 253.992 315.662 254.515 314.553 255.56C313.465 256.584 312.846 257.928 312.697 259.592H324.633C324.484 257.928 323.854 256.584 322.745 255.56C321.657 254.515 320.292 253.992 318.649 253.992ZM340.01 252.04C342.122 252.04 343.796 252.659 345.034 253.896C346.292 255.112 346.922 256.893 346.922 259.24V269H344.65V259.464C344.65 257.715 344.212 256.381 343.338 255.464C342.463 254.547 341.215 254.088 339.594 254.088C337.78 254.088 336.34 254.632 335.274 255.72C334.228 256.787 333.706 258.269 333.706 260.168V269H331.434V252.168H333.61V255.272C334.228 254.248 335.082 253.459 336.17 252.904C337.279 252.328 338.559 252.04 340.01 252.04ZM360.128 269.16C358.464 269.16 356.971 268.797 355.648 268.072C354.347 267.347 353.323 266.333 352.576 265.032C351.83 263.709 351.456 262.227 351.456 260.584C351.456 258.941 351.83 257.469 352.576 256.168C353.323 254.867 354.347 253.853 355.648 253.128C356.971 252.403 358.464 252.04 360.128 252.04C361.579 252.04 362.87 252.328 364 252.904C365.152 253.459 366.059 254.28 366.72 255.368L365.024 256.52C364.47 255.688 363.766 255.069 362.912 254.664C362.059 254.237 361.131 254.024 360.128 254.024C358.912 254.024 357.814 254.301 356.832 254.856C355.872 255.389 355.115 256.157 354.56 257.16C354.027 258.163 353.76 259.304 353.76 260.584C353.76 261.885 354.027 263.037 354.56 264.04C355.115 265.021 355.872 265.789 356.832 266.344C357.814 266.877 358.912 267.144 360.128 267.144C361.131 267.144 362.059 266.941 362.912 266.536C363.766 266.131 364.47 265.512 365.024 264.68L366.72 265.832C366.059 266.92 365.152 267.752 364 268.328C362.848 268.883 361.558 269.16 360.128 269.16ZM377.782 269.16C376.161 269.16 374.7 268.797 373.398 268.072C372.097 267.325 371.073 266.301 370.326 265C369.58 263.699 369.206 262.227 369.206 260.584C369.206 258.941 369.58 257.469 370.326 256.168C371.073 254.867 372.097 253.853 373.398 253.128C374.7 252.403 376.161 252.04 377.782 252.04C379.404 252.04 380.865 252.403 382.166 253.128C383.468 253.853 384.481 254.867 385.206 256.168C385.953 257.469 386.326 258.941 386.326 260.584C386.326 262.227 385.953 263.699 385.206 265C384.481 266.301 383.468 267.325 382.166 268.072C380.865 268.797 379.404 269.16 377.782 269.16ZM377.782 267.144C378.977 267.144 380.044 266.877 380.982 266.344C381.942 265.789 382.689 265.011 383.222 264.008C383.756 263.005 384.022 261.864 384.022 260.584C384.022 259.304 383.756 258.163 383.222 257.16C382.689 256.157 381.942 255.389 380.982 254.856C380.044 254.301 378.977 254.024 377.782 254.024C376.588 254.024 375.51 254.301 374.55 254.856C373.612 255.389 372.865 256.157 372.31 257.16C371.777 258.163 371.51 259.304 371.51 260.584C371.51 261.864 371.777 263.005 372.31 264.008C372.865 265.011 373.612 265.789 374.55 266.344C375.51 266.877 376.588 267.144 377.782 267.144ZM399.541 252.04C401.653 252.04 403.328 252.659 404.565 253.896C405.824 255.112 406.453 256.893 406.453 259.24V269H404.181V259.464C404.181 257.715 403.744 256.381 402.869 255.464C401.994 254.547 400.746 254.088 399.125 254.088C397.312 254.088 395.872 254.632 394.805 255.72C393.76 256.787 393.237 258.269 393.237 260.168V269H390.965V252.168H393.141V255.272C393.76 254.248 394.613 253.459 395.701 252.904C396.81 252.328 398.09 252.04 399.541 252.04ZM421.485 267.976C421.058 268.36 420.525 268.659 419.885 268.872C419.266 269.064 418.616 269.16 417.933 269.16C416.354 269.16 415.138 268.733 414.285 267.88C413.432 267.027 413.005 265.821 413.005 264.264V254.088H409.997V252.168H413.005V248.488H415.277V252.168H420.397V254.088H415.277V264.136C415.277 265.139 415.522 265.907 416.013 266.44C416.525 266.952 417.25 267.208 418.189 267.208C418.658 267.208 419.106 267.133 419.533 266.984C419.981 266.835 420.365 266.621 420.685 266.344L421.485 267.976ZM427.797 255.464C428.33 254.333 429.12 253.48 430.165 252.904C431.232 252.328 432.544 252.04 434.101 252.04V254.248L433.557 254.216C431.786 254.216 430.4 254.76 429.397 255.848C428.394 256.936 427.893 258.461 427.893 260.424V269H425.621V252.168H427.797V255.464ZM444.072 252.04C446.269 252.04 447.954 252.595 449.128 253.704C450.301 254.792 450.888 256.413 450.888 258.568V269H448.712V266.376C448.2 267.251 447.442 267.933 446.44 268.424C445.458 268.915 444.285 269.16 442.92 269.16C441.042 269.16 439.549 268.712 438.44 267.816C437.33 266.92 436.776 265.736 436.776 264.264C436.776 262.835 437.288 261.683 438.312 260.808C439.357 259.933 441.01 259.496 443.272 259.496H448.616V258.472C448.616 257.021 448.21 255.923 447.4 255.176C446.589 254.408 445.405 254.024 443.848 254.024C442.781 254.024 441.757 254.205 440.776 254.568C439.794 254.909 438.952 255.389 438.248 256.008L437.224 254.312C438.077 253.587 439.101 253.032 440.296 252.648C441.49 252.243 442.749 252.04 444.072 252.04ZM443.272 267.368C444.552 267.368 445.65 267.08 446.568 266.504C447.485 265.907 448.168 265.053 448.616 263.944V261.192H443.336C440.456 261.192 439.016 262.195 439.016 264.2C439.016 265.181 439.389 265.96 440.136 266.536C440.882 267.091 441.928 267.368 443.272 267.368ZM472.481 245.256V269H470.305V265.672C469.622 266.803 468.716 267.667 467.585 268.264C466.476 268.861 465.217 269.16 463.809 269.16C462.23 269.16 460.801 268.797 459.521 268.072C458.241 267.347 457.238 266.333 456.513 265.032C455.788 263.731 455.425 262.248 455.425 260.584C455.425 258.92 455.788 257.437 456.513 256.136C457.238 254.835 458.241 253.832 459.521 253.128C460.801 252.403 462.23 252.04 463.809 252.04C465.174 252.04 466.401 252.328 467.489 252.904C468.598 253.459 469.505 254.28 470.209 255.368V245.256H472.481ZM464.001 267.144C465.174 267.144 466.23 266.877 467.169 266.344C468.129 265.789 468.876 265.011 469.409 264.008C469.964 263.005 470.241 261.864 470.241 260.584C470.241 259.304 469.964 258.163 469.409 257.16C468.876 256.157 468.129 255.389 467.169 254.856C466.23 254.301 465.174 254.024 464.001 254.024C462.806 254.024 461.729 254.301 460.769 254.856C459.83 255.389 459.084 256.157 458.529 257.16C457.996 258.163 457.729 259.304 457.729 260.584C457.729 261.864 457.996 263.005 458.529 264.008C459.084 265.011 459.83 265.789 460.769 266.344C461.729 266.877 462.806 267.144 464.001 267.144ZM484.697 252.04C486.894 252.04 488.579 252.595 489.753 253.704C490.926 254.792 491.513 256.413 491.513 258.568V269H489.337V266.376C488.825 267.251 488.067 267.933 487.065 268.424C486.083 268.915 484.91 269.16 483.545 269.16C481.667 269.16 480.174 268.712 479.065 267.816C477.955 266.92 477.401 265.736 477.401 264.264C477.401 262.835 477.913 261.683 478.937 260.808C479.982 259.933 481.635 259.496 483.897 259.496H489.241V258.472C489.241 257.021 488.835 255.923 488.025 255.176C487.214 254.408 486.03 254.024 484.473 254.024C483.406 254.024 482.382 254.205 481.401 254.568C480.419 254.909 479.577 255.389 478.873 256.008L477.849 254.312C478.702 253.587 479.726 253.032 480.921 252.648C482.115 252.243 483.374 252.04 484.697 252.04ZM483.897 267.368C485.177 267.368 486.275 267.08 487.193 266.504C488.11 265.907 488.793 265.053 489.241 263.944V261.192H483.961C481.081 261.192 479.641 262.195 479.641 264.2C479.641 265.181 480.014 265.96 480.761 266.536C481.507 267.091 482.553 267.368 483.897 267.368Z" fill="white"/>
</svg>
