<svg width="25" height="28" viewBox="0 0 25 28" fill="none" xmlns="http://www.w3.org/2000/svg">
<g clip-path="url(#clip0)">
<path d="M21.875 1.75H2.625C1.92881 1.75 1.26113 2.02656 0.768845 2.51884C0.276562 3.01113 0 3.67881 0 4.375L0 23.625C0 24.3212 0.276562 24.9889 0.768845 25.4812C1.26113 25.9734 1.92881 26.25 2.625 26.25H10.1309V17.9205H6.68555V14H10.1309V11.0119C10.1309 7.61305 12.1543 5.73562 15.2534 5.73562C16.7377 5.73562 18.2897 6.00031 18.2897 6.00031V9.33625H16.5796C14.8947 9.33625 14.3691 10.3819 14.3691 11.4543V14H18.1305L17.529 17.9205H14.3691V26.25H21.875C22.5712 26.25 23.2389 25.9734 23.7312 25.4812C24.2234 24.9889 24.5 24.3212 24.5 23.625V4.375C24.5 3.67881 24.2234 3.01113 23.7312 2.51884C23.2389 2.02656 22.5712 1.75 21.875 1.75Z" fill="#A3C35A"/>
</g>
<defs>
<clipPath id="clip0">
<rect width="24.5" height="28" fill="white"/>
</clipPath>
</defs>
</svg>
