<svg width="28" height="28" viewBox="0 0 28 28" fill="none" xmlns="http://www.w3.org/2000/svg">
<path d="M19.9922 6.35449H8.50781C7.3205 6.35449 6.35449 7.3205 6.35449 8.50781V19.9922C6.35449 21.1795 7.3205 22.1455 8.50781 22.1455H19.9922C21.1795 22.1455 22.1455 21.1795 22.1455 19.9922V8.50781C22.1455 7.3205 21.1795 6.35449 19.9922 6.35449ZM14.25 19.2744C11.4798 19.2744 9.22559 17.0202 9.22559 14.25C9.22559 11.4798 11.4798 9.22559 14.25 9.22559C17.0202 9.22559 19.2744 11.4798 19.2744 14.25C19.2744 17.0202 17.0202 19.2744 14.25 19.2744ZM19.2744 10.6611C18.483 10.6611 17.8389 10.017 17.8389 9.22559C17.8389 8.43417 18.483 7.79004 19.2744 7.79004C20.0658 7.79004 20.71 8.43417 20.71 9.22559C20.71 10.017 20.0658 10.6611 19.2744 10.6611Z" fill="white"/>
<path d="M14.25 10.6611C12.2713 10.6611 10.6611 12.2713 10.6611 14.25C10.6611 16.2287 12.2713 17.8389 14.25 17.8389C16.2287 17.8389 17.8389 16.2287 17.8389 14.25C17.8389 12.2713 16.2287 10.6611 14.25 10.6611Z" fill="white"/>
<path d="M22.8633 2H5.63672C3.65798 2 2 3.65798 2 5.63672V22.8633C2 24.842 3.65798 26.5 5.63672 26.5H22.8633C24.842 26.5 26.5 24.842 26.5 22.8633V5.63672C26.5 3.65798 24.842 2 22.8633 2ZM23.5811 19.9922C23.5811 21.9709 21.9709 23.5811 19.9922 23.5811H8.50781C6.52908 23.5811 4.91895 21.9709 4.91895 19.9922V8.50781C4.91895 6.52908 6.52908 4.91895 8.50781 4.91895H19.9922C21.9709 4.91895 23.5811 6.52908 23.5811 8.50781V19.9922Z" fill="white"/>
</svg>
