<svg width="30" height="30" viewBox="0 0 30 30" fill="none" xmlns="http://www.w3.org/2000/svg">
<path d="M26.9883 8.63076L20.6836 15.0526C20.6367 15.0995 20.6367 15.1698 20.6836 15.2167L25.0957 19.9159C25.3945 20.2148 25.3945 20.6952 25.0957 20.9941C24.9492 21.1405 24.75 21.2167 24.5566 21.2167C24.3633 21.2167 24.1641 21.1405 24.0176 20.9941L19.623 16.3124C19.5762 16.2655 19.5 16.2655 19.4531 16.3124L18.3809 17.4023C17.4844 18.3105 16.2949 18.8144 15.0176 18.8202C13.7227 18.8261 12.4922 18.2812 11.584 17.3612L10.5527 16.3124C10.5059 16.2655 10.4297 16.2655 10.3828 16.3124L5.98828 20.9941C5.8418 21.1405 5.64258 21.2167 5.44922 21.2167C5.25586 21.2167 5.05664 21.1405 4.91016 20.9941C4.61133 20.6952 4.61133 20.2148 4.91016 19.9159L9.32227 15.2167C9.36328 15.1698 9.36328 15.0995 9.32227 15.0526L3.01172 8.63076C2.93555 8.55459 2.8125 8.60733 2.8125 8.71279V21.5624C2.8125 22.5937 3.65625 23.4374 4.6875 23.4374H25.3125C26.3438 23.4374 27.1875 22.5937 27.1875 21.5624V8.71279C27.1875 8.60733 27.0586 8.56045 26.9883 8.63076Z" fill="#A3C35A"/>
<path d="M15 17.291C15.8672 17.291 16.6816 16.9512 17.291 16.3301L26.4844 6.97266C26.1621 6.71484 25.7637 6.5625 25.3242 6.5625H4.68164C4.24219 6.5625 3.83789 6.71484 3.52148 6.97266L12.7148 16.3301C13.3184 16.9453 14.1328 17.291 15 17.291Z" fill="#A3C35A"/>
</svg>
