<svg width="90" height="90" viewBox="0 0 90 90" fill="none" xmlns="http://www.w3.org/2000/svg">
<circle cx="45" cy="45" r="45" fill="#A3C35A"/>
<g clip-path="url(#clip0)">
<path d="M53.217 56.6879C52.9183 56.3779 52.3673 56.2889 51.9622 56.6765L51.9536 56.6849C51.5538 57.078 51.6261 57.6315 51.9269 57.9395C52.0867 58.1031 52.3172 58.2039 52.5587 58.2039C52.7718 58.2039 52.9932 58.1255 53.1819 57.9424C53.5844 57.5521 53.5159 56.9979 53.217 56.6879Z" fill="white"/>
<path d="M61.1746 39.768C61.0059 39.3128 60.5004 39.0807 60.0452 39.2491C59.5901 39.4177 59.3578 39.9232 59.5264 40.3784C60.2851 42.4266 60.6697 44.5831 60.6697 46.788C60.6697 56.9638 52.391 65.2424 42.2153 65.2424C38.4394 65.2424 34.8096 64.1102 31.718 61.9681C31.3193 61.6917 30.7716 61.7909 30.4952 62.1899C30.2187 62.5889 30.318 63.1363 30.7171 63.4127C34.104 65.7595 38.08 66.9999 42.2154 66.9999C47.6143 66.9999 52.6898 64.8975 56.5075 61.0799C60.325 57.2623 62.4274 52.1867 62.4274 46.7879C62.4272 44.3741 62.0057 42.0122 61.1746 39.768Z" fill="white"/>
<path d="M49.0212 27.7508C46.8409 26.9712 44.5511 26.5759 42.2152 26.5759C36.8163 26.5759 31.7407 28.6784 27.9231 32.4958C24.1056 36.3135 22.0032 41.3892 22.0032 46.7879C22.0032 50.9746 23.272 54.9914 25.6726 58.404C25.7537 58.5195 25.8614 58.6137 25.9867 58.6787C26.112 58.7437 26.251 58.7775 26.3922 58.7772C26.5729 58.7773 26.7493 58.7214 26.8969 58.6171C27.2939 58.3378 27.3894 57.7896 27.1101 57.3927C24.9189 54.2777 23.7607 50.6106 23.7607 46.7878C23.7607 36.6121 32.0394 28.3335 42.2151 28.3335C44.3489 28.3335 46.4396 28.6942 48.4294 29.4056C48.8863 29.5691 49.3894 29.3311 49.5527 28.8741C49.7162 28.4171 49.4782 27.9142 49.0212 27.7508Z" fill="white"/>
<path d="M66.9299 29.2879C66.8634 29.1273 66.7508 28.99 66.6063 28.8935C66.4617 28.7969 66.2918 28.7454 66.118 28.7454H61.5005L61.9971 28.2488C62.3402 27.9057 62.3402 27.3492 61.9971 27.006C61.6539 26.6628 61.0975 26.6628 60.7542 27.006L60.2513 27.5089V22.8788C60.3534 22.7766 60.4288 22.6508 60.4707 22.5126C60.5126 22.3743 60.5198 22.2279 60.4916 22.0862C60.4634 21.9445 60.4007 21.8119 60.309 21.7003C60.2174 21.5886 60.0996 21.5013 59.9661 21.446C59.8327 21.3907 59.6876 21.3691 59.5439 21.3833C59.4001 21.3974 59.262 21.4468 59.1419 21.527C59.0217 21.6073 58.9232 21.7159 58.8551 21.8433C58.7869 21.9706 58.7513 22.1129 58.7512 22.2573L51.0042 30.0044C50.8394 30.1691 50.7468 30.3927 50.7468 30.6257V33.6742C48.2119 32.0161 45.2896 31.1456 42.2151 31.1456C33.5899 31.1456 26.5728 38.1628 26.5728 46.7879C26.5728 55.413 33.5899 62.4302 42.2151 62.4302C45.0778 62.4302 47.8785 61.6495 50.3144 60.1726C50.7294 59.9209 50.8618 59.3805 50.6103 58.9655C50.3587 58.5505 49.8183 58.4179 49.4033 58.6696C47.2421 59.98 44.7565 60.6726 42.2151 60.6726C34.559 60.6726 28.3303 54.444 28.3303 46.7878C28.3303 39.1317 34.559 32.9031 42.2151 32.9031C45.3413 32.9031 48.2899 33.9164 50.7468 35.8333V37.0133L49.1453 38.6147C47.2751 37.0264 44.8553 36.0666 42.2151 36.0666C36.3034 36.0666 31.4939 40.876 31.4939 46.7877C31.4939 52.6994 36.3034 57.5089 42.2151 57.5089C48.1267 57.5089 52.9362 52.6994 52.9362 46.7877C52.9362 44.1476 51.9764 41.7278 50.3881 39.8575L51.9959 38.2497H53.165C55.0595 40.6777 56.0997 43.698 56.0997 46.7877C56.0997 49.3785 55.3817 51.9054 54.0235 54.0952C53.7676 54.5076 53.8946 55.0493 54.3072 55.3052C54.4053 55.3661 54.5143 55.407 54.6282 55.4257C54.7421 55.4444 54.8586 55.4405 54.9709 55.4141C55.0833 55.3878 55.1894 55.3396 55.2831 55.2723C55.3768 55.2049 55.4564 55.1198 55.5172 55.0217C57.0482 52.5534 57.8574 49.7062 57.8574 46.7877C57.8574 43.7523 56.9657 40.776 55.3218 38.2497H58.3708C58.6039 38.2497 58.8274 38.1571 58.9922 37.9923L66.7392 30.2453C66.8622 30.1225 66.9459 29.9659 66.9799 29.7955C67.0138 29.6251 66.9965 29.4484 66.9299 29.2879ZM51.1788 46.7879C51.1788 51.7304 47.1578 55.7515 42.2152 55.7515C37.2727 55.7515 33.2516 51.7304 33.2516 46.7879C33.2516 41.8454 37.2727 37.8243 42.2152 37.8243C44.3707 37.8243 46.3507 38.5892 47.8987 39.8617L45.8972 41.8631C44.8701 41.0931 43.595 40.6365 42.2153 40.6365C38.8234 40.6365 36.0639 43.396 36.0639 46.7879C36.0639 50.1799 38.8235 52.9394 42.2153 52.9394C45.6073 52.9394 48.3668 50.1798 48.3668 46.7879C48.3668 45.4082 47.9101 44.1332 47.1401 43.1059L49.1415 41.1045C50.4139 42.6524 51.1788 44.6324 51.1788 46.7879ZM41.5938 47.4094C41.7655 47.581 41.9903 47.6668 42.2152 47.6668C42.4401 47.6668 42.665 47.581 42.8366 47.4094L45.8793 44.3667C46.356 45.0841 46.6099 45.9265 46.6091 46.7879C46.6091 49.2107 44.638 51.1818 42.2152 51.1818C39.7924 51.1818 37.8213 49.2107 37.8213 46.7879C37.8213 44.3651 39.7924 42.394 42.2152 42.394C43.0766 42.3932 43.9191 42.6471 44.6365 43.1238L41.5938 46.1665C41.2506 46.5096 41.2506 47.0661 41.5938 47.4094ZM52.5045 35.2558V30.9898L58.4939 25.0004V29.2664L52.5045 35.2558ZM58.007 36.4923H53.7537L59.743 30.503H63.9964L58.007 36.4923Z" fill="white"/>
<path d="M29.1485 59.8192C28.9834 59.655 28.7602 59.5624 28.5273 59.5616C28.2952 59.5616 28.0685 59.6557 27.906 59.8192C27.7417 59.9826 27.6485 60.2093 27.6485 60.4405C27.6485 60.6716 27.7417 60.8983 27.906 61.0618C28.0711 61.2261 28.2944 61.3187 28.5273 61.3193C28.7585 61.3193 28.9851 61.2252 29.1485 61.0618C29.312 60.8983 29.4061 60.6716 29.4061 60.4405C29.4061 60.2093 29.3121 59.9835 29.1485 59.8192Z" fill="white"/>
</g>
<defs>
<clipPath id="clip0">
<rect width="45" height="45" fill="white" transform="translate(22 22)"/>
</clipPath>
</defs>
</svg>
