<svg width="13" height="12" viewBox="0 0 13 12" fill="none" xmlns="http://www.w3.org/2000/svg">
<g clip-path="url(#clip0)">
<path d="M11.7439 8.48005L9.09949 7.35505C8.98652 7.30726 8.86097 7.29719 8.74173 7.32636C8.6225 7.35553 8.51604 7.42235 8.43837 7.51677L7.26726 8.93709C5.42931 8.07688 3.95019 6.60863 3.08361 4.78419L4.51444 3.6217C4.60976 3.54474 4.67722 3.43906 4.70661 3.32065C4.73601 3.20224 4.72574 3.07755 4.67736 2.96545L3.54403 0.340445C3.49093 0.219604 3.39702 0.12094 3.27849 0.0614686C3.15995 0.00199667 3.02423 -0.0145562 2.89472 0.0146642L0.439167 0.577164C0.314304 0.605786 0.202901 0.675573 0.12314 0.775137C0.0433796 0.874701 -2.87633e-05 0.998161 1.42994e-08 1.12537C1.42994e-08 7.13709 4.90875 12.0004 10.9556 12.0004C11.0837 12.0004 11.2082 11.9574 11.3085 11.8782C11.4089 11.799 11.4792 11.6884 11.5081 11.5644L12.0747 9.12693C12.104 8.99775 12.0869 8.86248 12.0266 8.74442C11.9662 8.62635 11.8662 8.53287 11.7439 8.48005Z" fill="white"/>
</g>
<defs>
<clipPath id="clip0">
<rect width="12.0889" height="12" fill="white"/>
</clipPath>
</defs>
</svg>
