<svg width="30" height="30" viewBox="0 0 30 30" fill="none" xmlns="http://www.w3.org/2000/svg">
<path d="M25.5992 21.3749C24.7379 20.5136 22.6695 19.2187 21.65 18.7324C20.4664 18.164 20.0328 18.1757 19.1949 18.7792C18.4976 19.2832 18.0465 19.7519 17.2437 19.5761C16.441 19.4062 14.859 18.205 13.3238 16.6757C11.7886 15.1406 10.5933 13.5585 10.4234 12.7558C10.2535 11.9472 10.7222 11.5019 11.2203 10.8046C11.8238 9.96674 11.8414 9.53315 11.2672 8.34956C10.7808 7.32416 9.49177 5.26166 8.62458 4.40034C7.76325 3.53901 7.56989 3.72651 7.09528 3.89643C7.09528 3.89643 6.39216 4.17768 5.69489 4.64057C4.83356 5.21479 4.35309 5.69526 4.01325 6.41596C3.67926 7.13667 3.29255 8.47846 5.2613 11.9824C6.84919 14.8124 8.40778 16.957 10.7222 19.2656L10.7281 19.2714L10.734 19.2773C13.0484 21.5917 15.1871 23.1503 18.0172 24.7382C21.5211 26.707 22.8629 26.3203 23.5836 25.9863C24.3043 25.6523 24.7847 25.1718 25.359 24.3046C25.8219 23.6074 26.1031 22.9042 26.1031 22.9042C26.273 22.4296 26.4664 22.2363 25.5992 21.3749Z" fill="#A3C35A"/>
</svg>
