<svg width="90" height="90" viewBox="0 0 90 90" fill="none" xmlns="http://www.w3.org/2000/svg">
<circle cx="45" cy="45" r="45" fill="#A3C35A"/>
<g clip-path="url(#clip0)">
<path d="M66.0625 67H22.9375C22.6889 67 22.4504 66.9012 22.2746 66.7254C22.0988 66.5496 22 66.3112 22 66.0625C22 65.8139 22.0988 65.5754 22.2746 65.3996C22.4504 65.2238 22.6889 65.125 22.9375 65.125H66.0625C66.3111 65.125 66.5496 65.2238 66.7254 65.3996C66.9012 65.5754 67 65.8139 67 66.0625C67 66.3112 66.9012 66.5496 66.7254 66.7254C66.5496 66.9012 66.3111 67 66.0625 67Z" fill="white"/>
<path d="M34.1875 67H24.8125C24.5639 67 24.3254 66.9013 24.1496 66.7254C23.9738 66.5496 23.875 66.3112 23.875 66.0625V55.75C23.875 54.7169 24.715 53.875 25.75 53.875H33.25C34.285 53.875 35.125 54.7169 35.125 55.75V66.0625C35.125 66.3112 35.0262 66.5496 34.8504 66.7254C34.6746 66.9013 34.4361 67 34.1875 67ZM25.75 65.125H33.25V55.75H25.75V65.125Z" fill="white"/>
<path d="M49.1875 67H39.8125C39.5639 67 39.3254 66.9013 39.1496 66.7254C38.9738 66.5496 38.875 66.3112 38.875 66.0625V44.5C38.875 43.4669 39.715 42.625 40.75 42.625H48.25C49.285 42.625 50.125 43.4669 50.125 44.5V66.0625C50.125 66.3112 50.0262 66.5496 49.8504 66.7254C49.6746 66.9013 49.4361 67 49.1875 67ZM40.75 65.125H48.25V44.5H40.75V65.125Z" fill="white"/>
<path d="M64.1875 67H54.8125C54.5639 67 54.3254 66.9012 54.1496 66.7254C53.9738 66.5496 53.875 66.3111 53.875 66.0625V48.25C53.875 47.2168 54.715 46.375 55.75 46.375H63.25C64.285 46.375 65.125 47.2168 65.125 48.25V66.0625C65.125 66.3111 65.0262 66.5496 64.8504 66.7254C64.6746 66.9012 64.4361 67 64.1875 67ZM55.75 65.125H63.25V48.25H55.75V65.125Z" fill="white"/>
<path d="M26.6874 42.625C26.5021 42.6249 26.321 42.57 26.167 42.4671C26.0129 42.3642 25.8927 42.218 25.8217 42.0468C25.7507 41.8757 25.732 41.6874 25.7679 41.5056C25.8039 41.3239 25.8929 41.1568 26.0237 41.0256L35.3987 31.6506C35.5127 31.5353 35.6548 31.4518 35.8111 31.4084C35.9673 31.3649 36.1322 31.3631 36.2893 31.4031L50.7755 35.0237L61.6505 24.1487C61.8274 23.978 62.0642 23.8835 62.31 23.8856C62.5558 23.8877 62.7909 23.9863 62.9648 24.1601C63.1386 24.334 63.2372 24.5691 63.2393 24.8149C63.2414 25.0607 63.1469 25.2975 62.9762 25.4744L51.7262 36.7244C51.6118 36.839 51.4695 36.922 51.3134 36.965C51.1572 37.0081 50.9926 37.0098 50.8355 36.97L36.3493 33.3512L27.3493 42.3512C27.2624 42.4382 27.1592 42.5071 27.0457 42.5541C26.9321 42.6011 26.8103 42.6252 26.6874 42.625Z" fill="white"/>
<path d="M62.3125 33.25C62.0638 33.25 61.8254 33.1512 61.6496 32.9754C61.4738 32.7996 61.375 32.5611 61.375 32.3125V25.75H54.8125C54.5639 25.75 54.3254 25.6512 54.1496 25.4754C53.9738 25.2996 53.875 25.0611 53.875 24.8125C53.875 24.5639 53.9738 24.3254 54.1496 24.1496C54.3254 23.9738 54.5639 23.875 54.8125 23.875H62.3125C62.5611 23.875 62.7996 23.9738 62.9754 24.1496C63.1512 24.3254 63.25 24.5639 63.25 24.8125V32.3125C63.25 32.5611 63.1512 32.7996 62.9754 32.9754C62.7996 33.1512 62.5611 33.25 62.3125 33.25Z" fill="white"/>
</g>
<defs>
<clipPath id="clip0">
<rect width="45" height="45" fill="white" transform="translate(22 22)"/>
</clipPath>
</defs>
</svg>
